<svg height="429" viewBox="0 0 644 429" width="644" xmlns="http://www.w3.org/2000/svg" xmlns:xlink="http://www.w3.org/1999/xlink"><defs><linearGradient id="a" x1="112.465505%" x2="9.060846%" y1="38.575657%" y2="57.087778%"><stop offset="0" stop-color="#f4fffe"/><stop offset="1" stop-color="#dcefff"/></linearGradient><linearGradient id="b" x1="0%" x2="99.096196%" y1="50.109321%" y2="49.90848%"><stop offset="0" stop-color="#c0e3f5"/><stop offset="1" stop-color="#8cc2e7"/></linearGradient><path id="c" d="m.60198032 83.533379 265.23394268-.0711636c3.149348-.0008102 5.703056 2.5515845 5.703867 5.7009329v.0029335l-.040771 135.7219582c-.00081 3.148203-2.55273 5.700124-5.700933 5.700934l-265.23394175.074097c-3.14934848.00081-5.70305662-2.551584-5.70386679-5.700933-.00000025-.000977-.00000025-.001955 0-.002933l.04077069-135.7219585c.00080963-3.1482029 2.55272996-5.7001235 5.70093293-5.7009333z"/><filter id="d" height="436.3%" width="278.9%" x="-89.5%" y="-168.1%"><feOffset dx="0" dy="0" in="SourceAlpha" result="shadowOffsetOuter1"/><feGaussianBlur in="shadowOffsetOuter1" result="shadowBlurOuter1" stdDeviation="82.5"/><feColorMatrix in="shadowBlurOuter1" type="matrix" values="0 0 0 0 0   0 0 0 0 0.470588235   0 0 0 0 0.980392157  0 0 0 0.05 0"/></filter><linearGradient id="e" x1="0%" x2="99.691195%" y1="43.682561%" y2="47.516766%"><stop offset="0" stop-color="#e1f6ff"/><stop offset="1" stop-color="#8cd0ff"/></linearGradient></defs><g fill="none" fill-rule="evenodd"><ellipse cx="322" cy="417.5" fill="#eaf9fe" rx="157" ry="6.5"/><g transform="matrix(.97437006 .22495105 -.22495105 .97437006 26.176908 -193.999751)"><path d="m79.549462 335.091799c25.962584-73.110577 145.199999-129.892383 228.666994-209.466811 83.466995-79.5744286 245.385572-1.906142 332.713352 57.700436 87.32778 59.606577 40.137838 87.407881 0 181.294919-40.137839 93.887038-190.665358 93.207899-241.588558 169.797303-50.9232 76.589405-156.240054 82.44154-243.91272 16.326225-87.6726661-66.115316-101.8416517-142.541495-75.879068-215.652072z" fill="#f4fcff" transform="matrix(.93969262 .34202014 -.34202014 .93969262 140.540699 -108.904774)"/><path d="m108.179596 225.059137 513.931572-12.60301c22.54367 23.742275 42.337177 48.301892 58.005554 70.119552 12.017596 16.734075 19.648807 30.586542 23.630147 42.596177h-644.3860031c1.1138316-9.62879 3.1039573-18.989418 5.8937263-28.078926h70.9633268c4.647704 0 8.415413-3.797025 8.415413-8.480892 0-4.683868-3.767709-8.480892-8.415413-8.480892h16.830825c4.647705 0 8.415413-3.797025 8.415413-8.480892s-3.767708-8.480892-8.415413-8.480892h-12.018275c4.647705 0 8.415413-3.797025 8.415413-8.480892s-3.767708-8.480892-8.415413-8.480892h-50.3203915c3.131104-4.425403 6.4602656-8.766084 9.9745185-13.021542 2.320932-2.81045 4.822994-5.51662 7.495-8.126899zm26.249486-19.887281c38.579335-23.321114 93.640306-38.03528 150.671069-55.02453 94.008968 7.585667 183.030183-3.886941 243.118686-15.435218 30.979261 18.470969 60.606735 43.700941 86.862032 70.459736zm566.242579 163.106486c-13.327765 24.008828-45.721233 45.35559-82.561453 84.658835-2.844421 3.034589-5.807296 5.859082-8.879261 8.489246l-522.6835953-19.093474c-22.2807694-40.377191-30.4363883-77.618021-27.7297045-111.596511l641.8540228 37.541888zm-99.04996 99.11834c-73.723911 52.955857-199.996476 11.923145-268.604576 62.469614-74.047274 54.553739-175.014293 24.032461-234.7868808-68.081431-.035032-.053986-.0700392-.107968-.1050214-.161944zm-300.248054-61.745523c4.64234 0 8.405701-3.759248 8.405701-8.396515 0-4.637266-3.763361-8.396514-8.405701-8.396514h-12.004406c4.64234 0 8.405701-3.759247 8.405701-8.396514s-3.763361-8.396514-8.405701-8.396514h-97.247901c-4.642341 0-8.405702 3.759247-8.405702 8.396514s3.763361 8.396514 8.405702 8.396514h12.004405c-4.64234 0-8.405701 3.759248-8.405701 8.396514 0 4.637267 3.763361 8.396515 8.405701 8.396515h-16.811402c-4.642341 0-8.405702 3.759247-8.405702 8.396514s3.763361 8.396514 8.405702 8.396514h97.247901c4.642341 0 8.405701-3.759247 8.405701-8.396514s-3.76336-8.396514-8.405701-8.396514z" fill="url(#a)"/></g><g transform="translate(179 49)"><path d="m266.112002 192.045244v-5.555293c-.002504-8.515822-7.003827-15.41795-15.639529-15.41795h-222.4777438c-8.6357024 0-15.6370245 6.902128-15.6395291 15.41795v10.242851z" fill="url(#b)" fill-rule="nonzero"/><g transform="matrix(.5 .8660254 -.8660254 .5 202.620256 -36.823292)"><use fill="#000" filter="url(#d)" xlink:href="#c"/><use fill="#fff" fill-rule="evenodd" xlink:href="#c"/></g><g fill="#8a939e"><path d="m175.872231 77.7915317c0 2.6812829-2.1749 4.8548922-4.857776 4.8548922h-89.3830947c-2.682876 0-4.8577768-2.1736093-4.8577768-4.8548922s2.1749008-4.8548922 4.8577768-4.8548922h89.3830947c2.682876 0 4.857776 2.1736093 4.857776 4.8548922zm-36.919104 19.4195688c0 2.6812829-2.174901 4.8548925-4.857777 4.8548925h-52.4639897c-2.682876 0-4.8577768-2.1736096-4.8577768-4.8548925s2.1749008-4.8548922 4.8577768-4.8548922h52.4639897c2.682876 0 4.857777 2.1736093 4.857777 4.8548922z" transform="matrix(.5 .8660254 -.8660254 .5 138.939816 -65.648189)"/><path d="m165.6044 287.043128h33.032883v11.651741h-33.032883zm0-33.013267h33.032883v11.651741h-33.032883zm0-46.606965h33.032883v9.709785h-33.032883zm0 69.910448h33.032883v3.883914h-33.032883zm0-7.767828h33.032883v3.883914h-33.032883zm0-48.548922h33.032883v3.883914h-33.032883zm0-25.245439h33.032883v3.883914h-33.032883zm0-9.709784h33.032883v5.82587h-33.032883zm0 56.316749h33.032883v3.883914h-33.032883zm0-11.651741h33.032883v5.82587h-33.032883z" transform="matrix(.5 .8660254 -.8660254 .5 300.96603 -36.532215)"/><ellipse cx="123.420127" cy="194.14635" rx="23.097474" ry="23.104335" transform="matrix(.5 .8660254 -.8660254 .5 229.845735 -9.81179)"/></g><g fill-rule="nonzero" transform="translate(12.3552 184.377601)"><path d="m259.921586 15.7403476v156.0914034c-.002502 7.454505-6.054801 13.496251-13.519824 13.49625h-232.4286154c-7.46252107-.002498-13.51076318-6.044243-13.51076276-13.49625v-171.831751c6.66023516 2.46579173 6.66023516 2.46579173 13.51076276 2.26219425h232.4286154c7.457954-.00001046 13.507327 6.03071697 13.519824 13.47815335z" fill="url(#e)"/><path d="m259.921586 72.2304006v49.4208004h-48.506963c-13.68039-.181967-24.673838-11.18971-24.673838-24.7059217 0-13.5162115 10.993448-24.5239542 24.673838-24.7059216z" fill="#d8efff"/><circle cx="213.351986" cy="97.891201" fill="#000" opacity=".1" r="9.504"/><circle cx="214.302386" cy="97.891201" fill="#93d3ff" r="9.504"/></g><circle cx="252.119999" cy="330.439998" fill="#fff" r="47.08"/><text fill="#93d4ff" font-family="CerebriSans-Medium, Cerebri Sans" font-size="72.990712" font-weight="400" letter-spacing="-1.13541134"><tspan x="221.759999" y="357.879998">€</tspan></text></g></g></svg>