<svg height="452" viewBox="0 0 449 452" width="449" xmlns="http://www.w3.org/2000/svg" xmlns:xlink="http://www.w3.org/1999/xlink"><defs><linearGradient id="a" x1="96.983306%" x2="9.060846%" y1="57.275003%" y2="63.30539%"><stop offset="0" stop-color="#f4fffe"/><stop offset="1" stop-color="#dcefff"/></linearGradient><path id="b" d="m19.2420652 11.9810231c2.211408-1.2866242 4.7432891-1.98125029 7.3468796-1.981023h19.7251331v2.5292418c.001895 6.6225633 5.3791216 11.990739 12.0128508 11.9926308h67.0366553c6.634497-.0000284 12.012808-5.3693007 12.012818-11.9926308v-2.5292418h21.029141c3.128556-.00027173 6.153568 1.0027679 8.643419 2.8306588v178.2159271c0 2.871881-2.32812 5.2-5.2 5.2h-137.406897c-2.8718806 0-5.1999998-2.328119-5.1999998-5.2z"/><filter id="c" height="192.9%" width="217%" x="-58.5%" y="-45.4%"><feOffset dx="0" dy="2" in="SourceAlpha" result="shadowOffsetOuter1"/><feGaussianBlur in="shadowOffsetOuter1" result="shadowBlurOuter1" stdDeviation="28.5"/><feColorMatrix in="shadowBlurOuter1" type="matrix" values="0 0 0 0 0   0 0 0 0 0   0 0 0 0 0  0 0 0 0.0879862325 0"/></filter><linearGradient id="d" x1="50%" x2="50%" y1="0%" y2="100%"><stop offset="0" stop-color="#0078fa" stop-opacity="0"/><stop offset=".522804054" stop-color="#0078fa" stop-opacity=".4"/><stop offset="1" stop-color="#0078fa" stop-opacity="0"/></linearGradient></defs><g fill="none" fill-rule="evenodd"><path d="m3.19198934 229.336647c13.85087086 60.636647 153.07509566 313.833251 249.94155266 187.234949 96.866458-126.598302 195.074509-87.495958 195.074509-220.974035 0-133.4780766-46.49136-165.1724739-227.984029-133.597561-181.4926698 31.5749129-230.8829035 106.7-217.03203266 167.336647z" fill="url(#a)"/><g fill-rule="nonzero"><rect fill="#282828" height="44.67688" rx="2.383326" width="5.19337" x="247.772183" y="85.197772"/><rect fill="#282828" height="14.545961" rx="1.558011" width="3.116022" x="64.965553" y="48.832869"/><rect fill="#282828" height="25.97493" rx="1.558011" width="3.116022" x="64.965553" y="75.846797"/><rect fill="#282828" height="25.97493" rx="1.558011" width="3.116022" x="64.965553" y="111.172702"/><rect fill="#e6e8ec" height="5.194986" rx="2.597493" width="25.966851" x="140.788757" y="11.428969"/><ellipse cx="172.987652" cy="13.506964" fill="#e6e8ec" rx="3.116022" ry="3.116992"/></g><g transform="translate(66.468315 -.649025)"><path d="m12 10h161v354h-161z" fill="#fff"/><g fill-rule="nonzero"><use fill="#000" filter="url(#c)" xlink:href="#b"/><use fill="#fff" xlink:href="#b"/></g><g fill="#e7f1ff"><rect height="49.38676" rx="5.186207" width="10.372414" x="135.931721" y="14.945192"/><rect height="25.993031" rx="5.186207" width="10.372414" x="117.779997" y="14.945192"/><rect height="32.491289" rx="16.206897" width="32.413793" x="27.021376" y="99.422544"/></g><path d="m25.2745847.64902507h133.4066313c13.641433 0 24.699999 11.05856623 24.699999 24.69999913v323.6000018c0 13.641433-11.058566 24.699999-24.699999 24.699999h-133.4066313c-13.6414328 0-24.69999906-11.058566-24.69999906-24.699999v-323.6000018c0-13.6414329 11.05856626-24.69999913 24.69999906-24.69999913zm147.7198903 23.91536373c.00034-3.8628179-1.536594-7.5675224-4.272623-10.2989484-2.736029-2.7314259-6.446978-4.26577636-10.316309-4.2654403h-21.029141v2.5292418c-.00001 6.6233301-5.378321 11.9926024-12.012818 11.9926308h-67.0366553c-6.6337292-.0018918-12.0109558-5.3700675-12.0128508-11.9926308v-2.5292418h-19.7251331c-3.8693324-.00033776-7.5802842 1.5340118-10.3163154 4.2654377-2.7360311 2.7314259-4.2729676 6.4361314-4.2726293 10.298951v324.1356312c.0016219 8.042153 6.5332327 14.560372 14.5889447 14.559033h131.8165922c8.055722.001335 14.587334-6.516902 14.588938-14.559065z" fill="#252932" fill-rule="nonzero"/></g><g fill="#c6deff" fill-rule="nonzero" transform="translate(92.193139 123.466899)"><path d="m133.544828 51.9860627v16.8954704c0 7.1777774-5.80486 12.9965157-12.965518 12.9965157h-16.855172v-2.5993032h16.855172c5.728526 0 10.372414-4.6549906 10.372414-10.3972125v-16.8954704z"/><path d="m29.8206897 81.8780488h-16.8551725c-7.1606574 0-12.9655172-5.8187383-12.9655172-12.9965157v-16.8954704h2.59310345v16.8954704c0 5.7422219 4.64388783 10.3972125 10.37241375 10.3972125h16.8551725z"/><path d="m29.8206897 0v2.59930314h-16.8551725c-5.72852592 0-10.37241375 4.65499061-10.37241375 10.39721256v16.8954704h-2.59310345v-16.8954704c0-7.17777743 5.8048598-12.9965157 12.9655172-12.9965157z"/><path d="m103.724138 0h16.855172c7.160658 0 12.965518 5.81873827 12.965518 12.9965157v16.8954704h-2.593104v-16.8954704c0-5.74222195-4.643888-10.39721256-10.372414-10.39721256h-16.855172z"/></g><g transform="translate(120.717277 148.160279)"><path d="m10.3265182 22.0000003h7.5727799v11.790941h-7.5727799zm-10.3265182 0h3.44217272v11.790941h-3.44217272zm5.85169362 0h2.06530363v11.790941h-2.06530363zm29.25846808 0h7.57278v11.790941h-7.57278zm35.1101618 0h7.5727799v11.790941h-7.5727799zm-40.9618554 0h3.4421727v11.790941h-3.4421727zm24.7836436 0h3.4421727v11.790941h-3.4421727zm5.8516936 0h3.4421727v11.790941h-3.4421727zm-39.5849863 0h2.0653037v11.790941h-2.0653037zm4.4748246 0h2.0653036v11.790941h-2.0653036zm20.308819 0h2.0653036v11.790941h-2.0653036zm20.6530363 0h2.0653037v11.790941h-2.0653037zm-16.1782117 0h2.0653036v11.790941h-2.0653036z" fill="#252932"/><path d="m10.3265182 0h7.5727799v22.0940767h-7.5727799zm-10.3265182 0h3.44217272v22.0940767h-3.44217272zm5.85169362 0h2.06530363v22.0940767h-2.06530363zm29.25846808 0h7.57278v22.0940767h-7.57278zm35.1101618 0h7.5727799v22.0940767h-7.5727799zm-40.9618554 0h3.4421727v22.0940767h-3.4421727zm24.7836436 0h3.4421727v22.0940767h-3.4421727zm5.8516936 0h3.4421727v22.0940767h-3.4421727zm-39.5849863 0h2.0653037v22.0940767h-2.0653037zm4.4748246 0h2.0653036v22.0940767h-2.0653036zm20.308819 0h2.0653036v22.0940767h-2.0653036zm20.6530363 0h2.0653037v22.0940767h-2.0653037zm-16.1782117 0h2.0653036v22.0940767h-2.0653036z" fill="#e7f1ff"/></g><g transform="translate(51.965553 131)"><rect fill="#0078fa" height="5.2" rx="2.6" width="213" y="37.7"/><path d="m14.609756 0h183v78h-183z" fill="url(#d)" fill-opacity=".4"/></g><g transform="translate(160.965553 62)"><rect fill="#fff" height="125" rx="5" width="198"/><path d="m100.220323 46h8.678975v33.7909408h-8.678975zm-10.3265177 0h4.5483674v33.7909408h-4.5483674zm5.8516936 0h3.1714984v33.7909408h-3.1714984zm30.3646631 0h7.57278v33.7909408h-7.57278zm35.110161 0h7.57278v33.7909408h-7.57278zm-40.961855 0h3.442173v33.7909408h-3.442173zm24.783644 0h3.442172v33.7909408h-3.442172zm5.851693 0h3.442173v33.7909408h-3.442173zm-39.584986 0h2.065304v33.7909408h-2.065304zm4.474825 0h2.065303v33.7909408h-2.065303zm20.308819 0h2.065303v33.7909408h-2.065303zm20.653036 0h2.065304v33.7909408h-2.065304zm-16.178212 0h2.065304v33.7909408h-2.065304zm-100.2407688 0h7.5727799v33.7909408h-7.5727799zm-10.3265182 0h3.4421727v33.7909408h-3.4421727zm5.8516936 0h2.0653037v33.7909408h-2.0653037zm29.2584681 0h7.57278v33.7909408h-7.57278zm-5.8516936 0h3.4421727v33.7909408h-3.4421727zm24.7836436 0h3.4421727v33.7909408h-3.4421727zm-33.7332927 0h2.0653037v33.7909408h-2.0653037zm4.4748246 0h2.0653036v33.7909408h-2.0653036zm20.308819 0h2.0653036v33.7909408h-2.0653036zm4.4748246 0h2.0653036v33.7909408h-2.0653036z" fill="#252932"/><rect fill="#e0eaf8" height="14" rx="7" width="95" x="51.034447" y="19"/><text fill="#252932" font-family="CerebriSans-Bold, Cerebri Sans" font-size="23" font-weight="bold"><tspan x="77" y="111">50€</tspan></text></g></g></svg>