<svg height="580" viewBox="0 0 580 580" width="580" xmlns="http://www.w3.org/2000/svg" xmlns:xlink="http://www.w3.org/1999/xlink"><defs><circle id="a" cx="288" cy="288" r="287.287496"/><rect id="b" height="193.248248" rx="6" width="473.58061" y=".584805"/><filter id="c" height="148.6%" width="119.8%" x="-9.9%" y="-12.9%"><feOffset dx="0" dy="22" in="SourceAlpha" result="shadowOffsetOuter1"/><feGaussianBlur in="shadowOffsetOuter1" result="shadowBlurOuter1" stdDeviation="12"/><feColorMatrix in="shadowBlurOuter1" type="matrix" values="0 0 0 0 0   0 0 0 0 0   0 0 0 0 0  0 0 0 0.0919384058 0"/></filter><rect id="d" height="193.248248" rx="6" width="473.58061" y=".166948"/><filter id="e" height="148.6%" width="119.8%" x="-9.9%" y="-12.9%"><feOffset dx="0" dy="22" in="SourceAlpha" result="shadowOffsetOuter1"/><feGaussianBlur in="shadowOffsetOuter1" result="shadowBlurOuter1" stdDeviation="12"/><feColorMatrix in="shadowBlurOuter1" type="matrix" values="0 0 0 0 0   0 0 0 0 0   0 0 0 0 0  0 0 0 0.0919384058 0"/></filter><rect id="f" height="193.248248" rx="6" width="533" y=".236441"/><filter id="g" height="137.3%" width="113.5%" x="-6.8%" y="-18.6%"><feOffset dx="0" dy="0" in="SourceAlpha" result="shadowOffsetOuter1"/><feGaussianBlur in="shadowOffsetOuter1" result="shadowBlurOuter1" stdDeviation="12"/><feColorMatrix in="shadowBlurOuter1" type="matrix" values="0 0 0 0 0   0 0 0 0 0   0 0 0 0 0  0 0 0 0.278787364 0"/></filter><mask id="h" fill="#fff"><path d="m0 .132124h580.5v509h-580.5z" fill="#fff" fill-rule="evenodd"/></mask><mask id="i" fill="#fff"><use fill="#fff" fill-rule="evenodd" xlink:href="#a"/></mask></defs><g fill="none" fill-rule="evenodd"><g mask="url(#h)"><g fill-rule="evenodd" transform="translate(1 1)"><use fill="#f3f5fe" xlink:href="#a"/><path d="m-1 455h591v124h-591z" fill="#fff" mask="url(#i)"/></g></g><g transform="translate(48.709695 81)"><use fill="#000" filter="url(#c)" xlink:href="#b"/><use fill="#fff" fill-rule="evenodd" xlink:href="#b"/></g><g transform="translate(99.106782 121)"><g transform="translate(.095175 .801104)"><path d="m42.8348584 84.4627599c-27.4719895.5586207-30.559353-32.1020695-29.579531-48.2275869 1.8672079-30.07241429 28.9879404-42.13862136 40.0432901-31.80413845 11.7578636 0 17.2670513 14.71034505 18.5981302 31.50620735 1.7747718 22.3448279-6.4150608 48.04138-29.0249149 48.525518z" fill="#802d04"/><path d="m82.3420196 81.8000012c-1.164694-.8565517-2.588209-1.5268966-4.3260064-1.917931-9.5393988-2.1413794-27.0282965-12.1593106-27.0282965-12.1593106h-17.7107443s-15.9914339 9.0496553-25.40142225 12.1593106c-3.58651815 1.1731034-6.02682946 3.2586207-7.7461397 5.8282759 6.04531666 6.6475863 13.71750755 11.7310347 22.36952035 14.6731039h34.2567944c10.2603999-3.4820692 19.1527464-10.0551728 25.5862944-18.5648281z" fill="#ffdecc"/><path d="m51.3019992 47.3517248v22.5310349c-4.9915459 6.6289656-13.2368402 6.4055173-18.2468732 0v-22.5310349c0-12.1593105 18.2468732-12.1593105 18.2468732 0z" fill="#ffdecc"/><path d="m51.3019992 47.3517248v15.0827589c-3.4571077 2.7186207-6.784805 4.2455173-9.114193 4.2455173-2.3478753 0-5.6755725-1.5268966-9.1326802-4.2455173v-15.0827589c0-12.1593105 18.2468732-12.1593105 18.2468732 0z" fill="#f7c5aa"/><g fill="#ffdecc"><path d="m42.1878062 62.9372423c-5.9528806 0-18.4872069-9.4220691-22.3695204-22.9034486-3.9377751-13.5931037 3.4386205-33.14482808 22.3695204-33.14482808 18.9124126 0 26.2888082 19.55172438 22.3695203 33.14482808-3.8823134 13.4813795-16.4536141 22.9034486-22.3695203 22.9034486z"/><ellipse cx="18.639442" cy="37.8655" rx="6.547175" ry="3.775669" transform="matrix(-.39458349 -.91886009 .91886009 -.39458349 -8.798839 69.933641)"/><ellipse cx="66.235106" cy="37.863104" rx="6.547174" ry="3.77567" transform="matrix(.39461557 -.91884632 .91884632 .39461557 5.307329 83.781617)"/></g><path d="m39.1928787 3.51862074c-14.2351494 0-24.9577294 17.01931056-22.5543925 36.86896606 7.5797549-4.6179311 9.7612453-9.1800001 26.3812443-24.02069-3.8083646 5.586207-3.5495437 6.1448277-12.1645822 13.5558623 8.5965513 1.4337931 18.1914116-.9682759 26.7509884-12.4013795 2.0335928 8.1372415 4.9915459 17.0379313 8.7444489 22.2703451 7.1915235-30.98482802-14.475483-36.27310396-27.1577069-36.27310396z" fill="#802d04"/><path d="m61.2296293 98.6331049c-7.3948828-.9868965-16.08387-2.1227586-19.0418231-2.7931035-4.5108785-2.5137931-17.0821792-6.666207-24.9207549-19.7379313-5.1209564 1.862069-4.1596216 2.0482759-10.02006619 3.7800001-3.23526121.9310345-5.54616207 3.0537931-7.2100107 5.7724138 6.1377527 6.7034484 13.92086679 11.8800002 22.70229009 14.822069h33.7576398c1.608387-.5586205 3.1797996-1.1544826 4.732725-1.8620688z" fill="#915b8b"/></g><path d="m40.2678757 51.9551732c.7394883.0744828 1.5529254.1117242 2.3293881.1117242.7949499 0 1.608387 0 2.3663625-.0931035l2.8470298-.3165517c1.0167964-.1303448 1.7008231-.2606897 1.7008231-.2606897v.5586207s-1.7008231 1.564138-4.0671856 2.4579311c-.6655394.3724138-2.773081.6331035-2.8470298.6144828-.0739488 0-2.1630032-.2606897-2.8470299-.6331035-2.3478753-.8937931-4.0671855-2.4206897-4.0671855-2.4206897v-.595862s.7025139.1303448 1.7193102.2606896c.3142826 0 2.8100555.3165517 2.8470299.3165517z" fill="#fff"/></g><rect fill="#bedaff" height="14" rx="5" width="218.422923" x="216.498213" y="158"/><g transform="translate(48.709695 315)"><use fill="#000" filter="url(#e)" xlink:href="#d"/><use fill="#fff" fill-rule="evenodd" xlink:href="#d"/></g><g transform="translate(100.098884 360.330539)"><g fill="#4d1b02" transform="translate(10.102975)"><path d="m44.757136 20.5997001c4.332112 0 7.8647354-3.55813 7.8647354-7.958975 0-4.36339105-3.5326234-7.92152107-7.8647354-7.92152107-4.3507046 0-7.8833281 3.55813002-7.8833281 7.92152107 0 4.382118 3.5326235 7.940248 7.8833281 7.940248z"/><path d="m37.0039572 17.0977511c4.3321119 0 7.8647354-3.55813 7.8647354-7.92152105 0-4.40084502-3.5326235-7.95897504-7.8461426-7.95897504-4.3321119 0-7.8647354 3.55813002-7.8647354 7.92152104 0 4.34466405 3.5326235 7.92152105 7.8647354 7.92152105z"/><path d="m25.1975578 15.8617691c4.3321119 0 7.8833281-3.55813 7.8833281-7.94024806 0-4.36339102-3.5326234-7.92152104-7.8833281-7.92152104-4.3321119 0-7.8647354 3.55813002-7.8647354 7.92152104 0 4.38211806 3.5326235 7.94024806 7.8461426 7.94024806z"/><path d="m14.6182802 19.7569851c4.3321119 0 7.8647354-3.55813 7.8647354-7.921521 0-4.38211806-3.5326235-7.94024808-7.8647354-7.94024808s-7.88332812 3.55813002-7.88332812 7.94024808c0 4.363391 3.53262342 7.921521 7.86473532 7.921521z"/><path d="m8.5012638 28.5774022c4.3321119 0 7.8833281-3.5581301 7.8833281-7.9402481 0-4.363391-3.5326234-7.921521-7.8833281-7.921521-4.33211191 0-7.86473536 3.55813-7.86473536 7.921521s3.53262345 7.9215211 7.88332812 7.9215211zm44.4924627.205997c4.3321119 0 7.8647354-3.5581301 7.8647354-7.9402481 0-4.363391-3.5326235-7.921521-7.8647354-7.921521s-7.8833281 3.55813-7.8833281 7.921521c0 4.382118 3.5326234 7.9402481 7.8833281 7.9402481z" fill-rule="nonzero"/><path d="m51.8781612 39.8510562c4.3321119 0 7.8647354-3.55813 7.8647354-7.921521s-3.5326235-7.9402481-7.8647354-7.9402481-7.8833281 3.5955841-7.8833281 7.9589751 3.5326234 7.921521 7.8833281 7.921521z"/><g fill-rule="nonzero"><path d="m46.1701854 53.1846803c4.3321119 0 7.8833281-3.55813 7.8833281-7.921521 0-4.3821181-3.5326234-7.9402481-7.8833281-7.9402481-4.3321119 0-7.8647353 3.55813-7.8647353 7.9402481 0 4.363391 3.5326234 7.921521 7.8647353 7.921521zm-38.30107527-14.5508791c4.36929747 0 7.90192087-3.55813 7.90192087-7.940248 0-4.3821181-3.5326234-7.9402481-7.88332811-7.9402481-4.31351916 0-7.84614261 3.55813-7.84614261 7.9215211 0 4.344664 3.53262345 7.921521 7.86473536 7.921521zm5.72656857 15.5808641c4.3321119 0 7.8647353-3.55813 7.8647353-7.940248 0-4.3446641-3.5326234-7.9027941-7.8461426-7.9027941-4.33211189 0-7.86473534 3.55813-7.86473534 7.9215211 0 4.400845 3.53262345 7.958975 7.86473534 7.958975z"/><path d="m50.7440032 47.4354913c4.3321119 0 7.8833281-3.5581301 7.8833281-7.9402481s-3.5326235-7.940248-7.8833281-7.940248c-4.332112 0-7.8647354 3.55813-7.8647354 7.921521s3.5326234 7.9215211 7.8647354 7.9215211zm-41.7035495-.56181c4.3321119 0 7.8647354-3.5581301 7.8647354-7.9215211 0-4.382118-3.5326235-7.940248-7.8647354-7.940248-4.33211192 0-7.88332812 3.55813-7.88332812 7.940248 0 4.363391 3.53262345 7.9215211 7.86473536 7.9215211z"/></g></g><path d="m50.1375512 49.7763663v22.6971241c-5.4476772 6.704266-14.3164213 6.479542-19.7640985 0v-22.6971241c0-12.2661851 19.7640985-12.2661851 19.7640985 0z" fill="#e6a875"/><path d="m50.1375512 49.7763663v15.2063241c-3.718551 2.734142-7.3441382 4.269756-9.8913456 4.269756-2.5286147 0-6.1356092-1.535614-9.8541602-4.269756v-15.2063241c0-12.2661851 19.7455058-12.2661851 19.7455058 0z" fill="#b88053"/><g fill="#e6a875"><path d="m40.2462056 8.98896005c-33.13228943 0-21.1957407 40.35668525-19.0575739 43.55900225 2.4170582 3.55813 13.7028604 12.9216301 19.0575739 12.9216301 5.3547134 0 16.6777012-9.3635001 19.0761666-12.9216301 2.1567596-3.18359 14.0561228-43.55900225-19.0761666-43.55900225z"/><ellipse cx="16.805206" cy="40.595899" rx="5.763877" ry="3.31187" transform="matrix(-.31271624 -.9498466 .9498466 -.31271624 -16.49941 69.253263)"/><ellipse cx="64.074264" cy="40.581713" rx="5.763875" ry="3.311872" transform="matrix(.31279913 -.9498193 .9498193 .31279913 5.486596 88.746761)"/></g><g fill="#4d1b02" transform="translate(14.067607 5.6181)"><path d="m23.4826496 17.0041161c4.3321119 0 7.8647353-3.55813 7.8647353-7.92152105 0-4.36339102-3.5326234-7.94024804-7.8647353-7.94024804-4.3507047 0-7.8833282 3.59558402-7.8833282 7.95897504 0 4.36339105 3.5326235 7.92152105 7.8647354 7.92152105z"/><g fill-rule="nonzero"><path d="m34.2664475 16.5921221c4.3321119 0 7.8833281-3.55813 7.8833281-7.92152105 0-4.36339103-3.5326235-7.92152105-7.8833281-7.92152105-4.332112 0-7.8647354 3.55813002-7.8647354 7.92152105 0 4.36339105 3.5326234 7.92152105 7.8647354 7.92152105zm-18.7229043 2.883958c4.3321119 0 7.8647353-3.55813 7.8647353-7.940248 0-4.36339106-3.5326234-7.92152108-7.8833281-7.92152108-4.3507046 0-7.8833281 3.55813002-7.8833281 7.92152108 0 4.382118 3.5326235 7.940248 7.8833281 7.940248z"/><path d="m9.6682326 22.2289491c3.718551 0 6.6933918-3.033774 6.6933918-6.74172 0-3.7454-2.9748408-6.74172005-6.6933918-6.74172005-3.68136549 0-6.6933918 2.99632005-6.6933918 6.74172005 0 3.707946 3.01202631 6.74172 6.6933918 6.74172zm30.9197516-.692899c4.3321119 0 7.8647353-3.55813 7.8647353-7.940248 0-4.36339105-3.5326234-7.94024807-7.8647353-7.94024807-4.3507047 0-7.8833282 3.55813002-7.8833282 7.94024807 0 4.363391 3.5326235 7.921521 7.8647354 7.921521z"/><path d="m46.9652991 26.8919722c3.0678046 0 5.5778265-2.5094181 5.5778265-5.5806461 0-3.089955-2.5100219-5.6181-5.5778265-5.6181-3.0492118 0-5.540641 2.528145-5.540641 5.6181 0 3.071228 2.4914292 5.5806461 5.540641 5.5806461zm-40.82968995 1.086166c2.93765529 0 5.35471345-2.4345101 5.35471345-5.4308301 0-2.958866-2.41705816-5.393376-5.39189896-5.393376-2.93765529 0-5.35471344 2.43451-5.35471344 5.43083 0 2.958866 2.41705815 5.3933761 5.39189895 5.3933761z"/><path d="m5.02004385 31.6486302c1.8592755 0 3.42106692-1.535614 3.42106692-3.445768 0-1.9101541-1.56179142-3.4644951-3.43965968-3.4644951-1.91505376 0-3.45825243 1.573068-3.45825243 3.4832221 0 1.910154 1.54319867 3.464495 3.43965968 3.464495zm42.94926405.430721c1.8592755 0 3.4210669-1.554341 3.4210669-3.464495s-1.5431986-3.4644951-3.4396597-3.4644951c-1.9150537 0-3.4582524 1.5543411-3.4582524 3.4644951s1.5431987 3.464495 3.4396597 3.464495z"/><path d="m5.39189895 34.7385852c1.33867836 0 2.41705815-1.086166 2.41705815-2.43451s-1.07837979-2.43451-2.41705815-2.43451c-1.30149285 0-2.41705815 1.086166-2.41705815 2.43451s1.1155653 2.43451 2.41705815 2.43451zm42.14977555-.205997c1.3386784 0 2.4170582-1.086166 2.4170582-2.43451s-1.0783798-2.43451-2.4170582-2.43451c-1.3014928 0-2.4170581 1.086166-2.4170581 2.43451s1.1155653 2.43451 2.4170581 2.43451z"/></g></g><path d="m29.6297425 49.0272863c2.7889132 2.191059 18.4626057 2.05997 21.2515189 0-2.4170581 11.554559-18.0349723 11.910372-21.2515189 0z" fill="#fff"/><path d="m79.0120998 84.3651355c-.2231131-.299632-.4648189-.56181-.7065247-.74908-2.2683161-2.05997-7.6230296-6.2922721-25.1559976-14.2699741-7.8461426 8.352242-22.5530118 5.693008-25.2861468-.224724-17.8118592 8.05261-23.38968574 12.4534551-25.65800185 14.4946981-.55778265.505629-1.1155653 1.217255-1.59897693 2.116151 9.77978908 10.11258 23.42687128 16.3673985 38.56137388 16.3673985 15.8038417 0 29.9901138-6.8166285 39.844274-17.6970155z" fill="#86bceb"/></g><rect fill="#bedaff" height="14" rx="5" width="218.422923" x="216.498213" y="407.72113"/><g transform="translate(19 193)"><use fill="#000" filter="url(#g)" xlink:href="#f"/><use fill="#fff" fill-rule="evenodd" xlink:href="#f"/></g><g transform="translate(72.415471 232.515625)"><path d="m48.61875 78.7875c21.9375 0 24.99375-18.24375 30.5625-39.31875 3.75-14.0625.1875-25.3125-8.85-32.11875-4.55625-3.4125-6.1875-3.225-10.5-2.55-2.53125-3.1125-8.15625-4.425-11.2125-4.6125-16.0875-.80625-34.40625 13.78125-32.11875 35.00625 2.325 21.1875 10.18125 43.6125 32.11875 43.6125z" fill="#4b3c26"/><path d="m60.15 92.2875c-6.675 8.175-17.625 7.875-24.3 0v-27.75c0-14.9625 24.3-14.9625 24.3 0z" fill="#ffdecc"/><path d="m60.15 64.5375v18.5625c-4.59375 3.375-9 5.25-12.15 5.25-3.1125 0-7.55625-1.875-12.15-5.25v-18.5625c0-14.9625 24.3-14.9625 24.3 0z" fill="#f7c5aa"/><path d="m48 14.7375c-40.78125 0-26.11875 49.275-23.4375 53.19375 2.925 4.3125 16.875 15.80625 23.4375 15.80625 6.6 0 20.5125-11.475 23.4375-15.80625 2.68125-3.9375 17.34375-53.19375-23.4375-53.19375z" fill="#ffdecc"/><ellipse cx="41.682583" cy="16.198232" fill="#4b3c26" rx="21.975" ry="7.425" transform="matrix(.9612617 -.27563736 .27563736 .9612617 -2.850125 12.116769)"/><ellipse cx="64.0125" cy="15.4125" fill="#4b3c26" rx="12.1875" ry="6.15"/><ellipse cx="20.144884" cy="53.330343" fill="#ffdecc" rx="7.05" ry="4.0875" transform="matrix(-.31271624 -.9498466 .9498466 -.31271624 -24.211128 89.142157)"/><ellipse cx="75.444846" cy="53.317876" fill="#ffdecc" rx="7.05" ry="4.0875" transform="matrix(.31279913 -.9498193 .9498193 .31279913 1.203416 108.299062)"/><path d="m38.38125 68.71875c5.49375.5625 9.4125-2.25 18.84375-2.25-6.46875 9.15-13.25625 6.5625-15.3375 5.19375-2.1-1.3125-3.50625-2.94375-3.50625-2.94375z" fill="#fff"/><path d="m.28125 106.81875c.3-.375.6-.69375.9-.9375 2.8125-2.5125 12.80625-7.5375 34.6875-17.38125 3.375 7.2375 16.96875 11.1 24.2625.50625 21.1125 9.525 31.44375 14.175 34.5 16.6875-12.225 12.24375-29.1 19.8-47.75625 19.8-18.075 0-34.5-7.125-46.59375-18.675z" fill="#ffd16e"/></g><path d="m23.25 8.84c0-.42-.45-.6-.75-.645l-7.05-1.02-3.15-6.36c-.105-.255-.345-.555-.675-.555-.3 0-.555.3-.675.57l-3.15 6.375-7.02 1.02c-.345.06-.78.225-.78.645 0 .255.18.495.345.675l5.1 4.95-1.2 7.005c-.03.09-.03.18-.03.27 0 .375.195.705.6.705.195 0 .375-.075.555-.15l6.27-3.3 6.3 3.3c.15.075.345.15.54.15.42 0 .6-.33.6-.705 0-.09 0-.18-.03-.27l-1.2-6.99 5.1-4.95c.15-.15.345-.405.345-.66zm27.84 0c0-.42-.45-.6-.78-.645l-7.02-1.02-3.15-6.36c-.12-.255-.345-.555-.675-.555-.3 0-.54.3-.675.57l-3.15 6.375-7.005 1.02c-.345.06-.78.225-.78.645 0 .255.18.495.345.675l5.07 4.95-1.2 7.005-.03.27c0 .375.18.705.6.705.18 0 .375-.075.555-.15l6.27-3.3 6.3 3.3c.15.075.36.15.555.15.405 0 .57-.33.57-.705v-.27l-1.2-6.99 5.01-5.01c.18-.15.36-.405.36-.66zm27.84 0c0-.42-.45-.6-.78-.645l-7.02-1.02-3.15-6.36c-.12-.255-.36-.555-.675-.555-.33 0-.57.3-.69.57l-3.15 6.375-6.99 1.02c-.36.06-.795.225-.795.645 0 .255.195.495.375.675l5.1 4.95-1.2 7.005-.045.27c0 .375.18.705.6.705.18 0 .36-.075.54-.15l6.3-3.3 6.255 3.3c.15.075.36.15.555.15.42 0 .6-.33.6-.705 0-.09 0-.18-.03-.27l-1.23-7.05 5.07-4.95c.18-.15.36-.405.36-.66zm27.84 0c0-.42-.45-.6-.78-.645l-7.02-1.02-3.15-6.36c-.12-.255-.36-.555-.69-.555-.3 0-.555.3-.675.57l-3.15 6.375-7.02 1.02c-.36.06-.795.225-.795.645 0 .255.18.495.345.675l5.1 4.95-1.2 7.005c-.03.09-.03.18-.03.27 0 .375.18.705.6.705.18 0 .36-.075.54-.15l6.27-3.3 6.3 3.3c.15.075.345.15.54.15.405 0 .57-.33.57-.705v-.27l-1.2-6.99 5.07-4.95c.18-.15.36-.405.36-.66zm27.825 0c0-.42-.45-.6-.78-.645l-7.005-1.02-3.15-6.36c-.12-.255-.345-.555-.675-.555-.3 0-.555.3-.69.57l-3.15 6.375-7.005 1.02c-.345.06-.78.225-.78.645 0 .255.18.495.345.675l5.1 4.95-1.2 7.005-.045.27c0 .375.18.705.6.705.18 0 .375-.075.555-.15l6.27-3.3 6.3 3.3c.15.075.345.15.54.15.405 0 .57-.33.57-.705v-.27l-1.2-6.99 5.055-4.95c.15-.15.345-.405.345-.66z" fill="#ffd500" fill-rule="nonzero" transform="translate(216 270.75)"/><rect fill="#bedaff" height="14" rx="5" width="220" x="216" y="306.25"/><circle cx="464" cy="102.161968" fill="#2b7de8" r="63"/><path d="m64.0406866 6.10632927-5.0358073-5.07647627c-1.0428697-1.05136107-2.7406894-1.05828821-3.7920504-.01519501l-31.5859703 31.33212411-13.3608887-13.4692649c-1.04286974-1.051361-2.74068938-1.0582882-3.79205046-.0154185l-5.07669972 5.0358073c-1.05136107 1.0428697-1.05828821 2.7406894-.01519501 3.7922739l20.28557059 20.4498108c1.0428697 1.0513611 2.7406893 1.0582882 3.7920504.015195l38.5660693-38.25658252c1.0511376-1.0430932 1.0578413-2.74091284.0149716-3.79227391z" fill="#fff" fill-rule="nonzero" transform="translate(431.5 77.761194)"/></g></svg>