<svg height="580" viewBox="0 0 580 580" width="580" xmlns="http://www.w3.org/2000/svg" xmlns:xlink="http://www.w3.org/1999/xlink"><defs><circle id="a" cx="288" cy="288" r="287.287496"/><rect id="b" height="81" rx="6" width="533" x=".5"/><filter id="c" height="216%" width="117.6%" x="-8.8%" y="-30.9%"><feOffset dx="0" dy="22" in="SourceAlpha" result="shadowOffsetOuter1"/><feGaussianBlur in="shadowOffsetOuter1" result="shadowBlurOuter1" stdDeviation="12"/><feColorMatrix in="shadowBlurOuter1" type="matrix" values="0 0 0 0 0   0 0 0 0 0   0 0 0 0 0  0 0 0 0.0919384058 0"/></filter><rect id="d" height="81" rx="6" width="533" x=".5"/><filter id="e" height="216%" width="117.6%" x="-8.8%" y="-30.9%"><feOffset dx="0" dy="22" in="SourceAlpha" result="shadowOffsetOuter1"/><feGaussianBlur in="shadowOffsetOuter1" result="shadowBlurOuter1" stdDeviation="12"/><feColorMatrix in="shadowBlurOuter1" type="matrix" values="0 0 0 0 0   0 0 0 0 0   0 0 0 0 0  0 0 0 0.0919384058 0"/></filter><rect id="f" height="81" rx="6" width="533" x=".5"/><filter id="g" height="216%" width="117.6%" x="-8.8%" y="-30.9%"><feOffset dx="0" dy="22" in="SourceAlpha" result="shadowOffsetOuter1"/><feGaussianBlur in="shadowOffsetOuter1" result="shadowBlurOuter1" stdDeviation="12"/><feColorMatrix in="shadowBlurOuter1" type="matrix" values="0 0 0 0 0   0 0 0 0 0   0 0 0 0 0  0 0 0 0.0919384058 0"/></filter><mask id="h" fill="#fff"><path d="m.5.132124h580.5v509h-580.5z" fill="#fff" fill-rule="evenodd"/></mask><mask id="i" fill="#fff"><use fill="#fff" fill-rule="evenodd" xlink:href="#a"/></mask></defs><g fill="none" fill-rule="evenodd"><g mask="url(#h)" transform="translate(-1)"><g fill-rule="evenodd" transform="translate(2)"><use fill="#f3f5fe" xlink:href="#a"/><g fill="none" mask="url(#i)"><g transform="translate(104.5 105.132124)"><rect fill="#fff" height="489.494395" rx="6" width="367.781065" x=".395464"/><rect fill="#2b7de8" height="13.735849" rx="5" width="163.721893" x="23.815055" y="44.38471"/></g></g></g></g><g transform="translate(22.5 182.498987)"><use fill="#000" filter="url(#c)" xlink:href="#b"/><use fill="#fff" fill-rule="evenodd" xlink:href="#b"/></g><rect fill="#2b7de8" height="44" rx="6" width="44" x="57" y="200.998987"/><rect fill="#bedaff" height="14" rx="5" width="383" x="120.5" y="215.998987"/><g transform="translate(22.5 305.054718)"><use fill="#000" filter="url(#e)" xlink:href="#d"/><use fill="#fff" fill-rule="evenodd" xlink:href="#d"/></g><rect fill="#2b7de8" height="44" rx="6" width="44" x="57" y="323.554718"/><rect fill="#bedaff" height="14" rx="5" width="383" x="120.5" y="338.554718"/><g transform="translate(22.5 428.61045)"><use fill="#000" filter="url(#g)" xlink:href="#f"/><use fill="#fff" fill-rule="evenodd" xlink:href="#f"/></g><rect fill="#2b7de8" height="44" rx="6" width="44" x="57" y="447.11045"/><rect fill="#bedaff" height="14" rx="5" width="383" x="120.5" y="462.11045"/><path d="m28.2044562 3.54385271-2.2178432-2.23575449c-.4592951-.46303481-1.2070398-.46608562-1.6700746-.0066921l-13.9109239 13.79912628-5.88433101-5.93206148c-.45929511-.46303481-1.20703974-.46608562-1.67007456-.00679052l-2.2358529 2.2178433c-.46303481.4592951-.46608563 1.2070397-.00669211 1.6701729l8.93406235 9.0063962c.45929513.4630348 1.20703973.4660856 1.67007453.0066921l16.9850617-16.84875922c.4629364-.45939352.4658888-1.20713815.0065937-1.67017297z" fill="#fff" fill-rule="nonzero" transform="translate(64.532104 334.000734)"/><circle cx="464" cy="101.161968" fill="#2b7de8" r="63"/><path d="m61.7851726 27.2771401h-23.8901764v-23.89017642c0-1.46659139-1.1878726-2.65446404-2.654464-2.65446404h-5.3089281c-1.4665914 0-2.654464 1.18787265-2.654464 2.65446404v23.89017642h-23.89017642c-1.46659139 0-2.65446404 1.1878726-2.65446404 2.654464v5.3089281c0 1.4665914 1.18787265 2.654464 2.65446404 2.654464h23.89017642v23.8901764c0 1.4665914 1.1878726 2.654464 2.654464 2.654464h5.3089281c1.4665914 0 2.654464-1.1878726 2.654464-2.654464v-23.8901764h23.8901764c1.4665914 0 2.654464-1.1878726 2.654464-2.654464v-5.3089281c0-1.4665914-1.1878726-2.654464-2.654464-2.654464z" fill="#fff" transform="translate(431.16807 68.330038)"/></g></svg>
