<?xml version="1.0" encoding="UTF-8"?>
<svg width="28px" height="18px" viewBox="0 0 28 18" version="1.1" xmlns="http://www.w3.org/2000/svg" xmlns:xlink="http://www.w3.org/1999/xlink">
    <!-- Generator: Sketch 53.1 (72631) - https://sketchapp.com -->
    <title>Mastercard-logo</title>
    <desc>Created with Sketch.</desc>
    <g id="Symbols" stroke="none" stroke-width="1" fill="none" fill-rule="evenodd">
        <g id="Carte" transform="translate(-512.000000, -210.000000)" fill-rule="nonzero">
            <g id="Pay" transform="translate(-1.000000, -1.000000)">
                <g id="Card-number" transform="translate(2.733288, 171.500000)">
                    <g id="Group" transform="translate(0.536530, 28.000000)">
                        <g id="MasterCARD" transform="translate(500.687869, 5.500000)">
                            <g id="Mastercard-logo" transform="translate(8.423466, 5.057632)">
                                <polygon id="Path" fill="#FF5F00" points="18.228202 16.8336658 10.7650977 16.8336658 10.7650977 3.42116326 18.228202 3.42116326"/>
                                <g id="Group" transform="translate(7.896927, 9.803349) scale(-1, 1) rotate(-180.000000) translate(-7.896927, -9.803349) translate(0.396927, 0.803349)" fill="#EB001B">
                                    <path d="M10.8462741,8.67701928 C10.8462741,11.3978071 12.120169,13.8214071 14.1039525,15.3832706 C12.6532634,16.5253832 10.8224123,17.2070716 8.83266332,17.2070716 C4.12212647,17.2070716 0.303695675,13.3880984 0.303695675,8.67701928 C0.303695675,3.96594013 4.12212647,0.146967014 8.83266332,0.146967014 C10.8224123,0.146967014 12.6532634,0.828655342 14.1039525,1.97076801 C12.120169,3.53263148 10.8462741,5.95623143 10.8462741,8.67701928" id="Path"/>
                                </g>
                                <g id="Group" transform="translate(21.693388, 9.803349) scale(-1, 1) rotate(-180.000000) translate(-21.693388, -9.803349) translate(14.193388, 0.803349)" fill="#F79E1B">
                                    <path d="M14.1001563,8.67701928 C14.1001563,3.96594013 10.2817255,0.146967014 5.57118869,0.146967014 C3.58143971,0.146967014 1.75058864,0.828655342 0.299357165,1.97076801 C2.28368301,3.53263148 3.55757791,5.95623143 3.55757791,8.67701928 C3.55757791,11.3978071 2.28368301,13.8214071 0.299357165,15.3832706 C1.75058864,16.5253832 3.58143971,17.2070716 5.57118869,17.2070716 C10.2817255,17.2070716 14.1001563,13.3880984 14.1001563,8.67701928" id="Path"/>
                                </g>
                            </g>
                        </g>
                    </g>
                </g>
            </g>
        </g>
    </g>
</svg>