<svg width="1280" height="800" viewBox="0 0 1280 800" xmlns="http://www.w3.org/2000/svg" xmlns:xlink="http://www.w3.org/1999/xlink"><title>profile-devices</title><defs><rect id="a" width="418" height="592" rx="28.1"/><mask id="d" x="-4" y="-4" width="426" height="600"><path fill="#fff" d="M-4-4h426v600H-4z"/><use xlink:href="#a"/></mask><circle id="b" cx="209.05" cy="567.14" r="13.33"/><mask id="e" x="0" y="0" width="26.67" height="26.67" fill="#fff"><use xlink:href="#b"/></mask><path d="M198 385.4c0 16.9-13.66 30.6-30.5 30.6h-137C13.66 416 0 402.3 0 385.4V30.6C0 13.7 13.66 0 30.5 0h137C184.34 0 198 13.7 198 30.6v354.8z" id="c"/><mask id="f" x="-4" y="-4" width="206" height="424"><path fill="#fff" d="M-4-4h206v424H-4z"/><use xlink:href="#c"/></mask></defs><g fill="none" fill-rule="evenodd"><g transform="translate(26 171)"><rect stroke="#ABB1BA" stroke-width="4" fill="#F9FAFA" transform="rotate(-90 440.667 254)" x="186.67" y="-120" width="508" height="748" rx="28.1"/><path d="M440.48 17.57c-2.1 0-3.8 1.7-3.8 3.8 0 2.1 1.7 3.82 3.8 3.82 2.1 0 3.8-1.72 3.8-3.82 0-2.1-1.7-3.8-3.8-3.8M0 507.25c0-.68.4-1.25.92-1.25L440 507.3l439.08-1.3c.5 0 .92.57.92 1.25v8l-2.02.33C848 527.68 819.9 529 819.9 529H62.85S29.97 527.67 0 515.58v-8.33z" fill="#ABB1BA"/><path fill="#F9FAFA" d="M3 509h880v4H3z"/></g><g transform="translate(123.62 211.43)"><rect fill="#E0E3E6" width="685.71" height="428.57" rx=".95"/><g transform="translate(82.85 45.202)"><rect fill="#FFF" y="30.37" width="200" height="244" rx="10"/><path fill="#FFF" d="M230 240.37h328.56v143H230zM230 30.37h328.56v196.48H230z"/><path fill="#D8D8D8" d="M251 54h240v6H251zM251 74h240v6H251zM251 94h240v6H251zM251 114h140v6H251zM251 134h140v6H251zM251 263h150v12H251z"/><g fill="#FFD500"><path d="M63.4 142.2c0-.35-.4-.5-.67-.54l-5.85-.85-2.62-5.3c-.1-.2-.3-.46-.57-.46-.28 0-.47.25-.58.47l-2.62 5.3-5.85.86c-.3.05-.65.2-.65.54 0 .2.15.4.3.56l4.23 4.12-1 5.83-.02.24c0 .3.16.58.5.58.16 0 .3-.05.46-.14l5.23-2.75 5.22 2.75c.14.1.3.14.47.14.33 0 .47-.28.47-.58v-.23l-1.02-5.82 4.23-4.12c.15-.15.3-.35.3-.56zM86.58 142.2c0-.35-.37-.5-.65-.54l-5.85-.85-2.62-5.3c-.1-.2-.3-.46-.57-.46-.28 0-.48.25-.58.47l-2.62 5.3-5.85.86c-.3.05-.65.2-.65.54 0 .2.15.4.3.56l4.23 4.12-1 5.83-.03.24c0 .3.15.58.5.58.15 0 .3-.05.46-.14l5.23-2.75 5.22 2.75c.14.1.3.14.47.14.32 0 .46-.28.46-.58v-.23l-1-5.82 4.22-4.12c.15-.15.3-.35.3-.56zM109.78 142.2c0-.35-.38-.5-.66-.54l-5.84-.85-2.62-5.3c-.1-.2-.3-.46-.58-.46-.26 0-.46.25-.57.47l-2.6 5.3-5.86.86c-.3.05-.65.2-.65.54 0 .2.14.4.28.56l4.24 4.12-1 5.83-.02.24c0 .3.15.58.5.58.15 0 .3-.05.45-.14l5.23-2.75 5.24 2.75c.13.1.3.14.46.14.34 0 .48-.28.48-.58v-.23l-1-5.82 4.2-4.12c.17-.15.32-.35.32-.56zM132.97 142.2c0-.35-.37-.5-.65-.54l-5.85-.85-2.62-5.3c-.1-.2-.3-.46-.57-.46-.27 0-.47.25-.57.47l-2.6 5.3-5.86.86c-.3.05-.65.2-.65.54 0 .2.14.4.28.56l4.24 4.12-1 5.83c0 .1-.03.16-.03.24 0 .3.15.58.48.58.17 0 .32-.05.47-.14l5.23-2.75 5.23 2.75c.15.1.3.14.48.14.33 0 .47-.28.47-.58v-.23l-1-5.82 4.22-4.12c.15-.15.3-.35.3-.56zM156.17 142.2c0-.35-.37-.5-.65-.54l-5.85-.85-2.62-5.3c-.1-.2-.3-.46-.57-.46-.27 0-.47.25-.57.47l-2.62 5.3-5.84.86c-.3.05-.66.2-.66.54 0 .2.15.4.3.56l4.24 4.12-1 5.83-.03.24c0 .3.14.58.48.58.16 0 .3-.05.47-.14l5.23-2.75 5.23 2.75c.15.1.3.14.47.14.34 0 .48-.28.48-.58v-.23l-1-5.82 4.22-4.12c.15-.15.3-.35.3-.56z"/></g><g fill="#FFD500"><path d="M265.54 292.15c0-.26-.28-.37-.5-.4l-4.38-.64-1.96-3.97c-.08-.16-.23-.35-.43-.35-.2 0-.35.2-.43.35l-1.96 3.98-4.4.65c-.2.03-.48.14-.48.4 0 .16.1.3.22.42l3.18 3.1-.75 4.36-.02.18c0 .23.1.44.37.44.12 0 .23-.04.35-.1l3.92-2.06 3.92 2.06c.1.06.22.1.34.1.26 0 .36-.2.36-.43v-.17l-.76-4.37 3.17-3.1c.13-.1.24-.25.24-.4zM282.94 292.15c0-.26-.28-.37-.5-.4l-4.38-.64-1.97-3.97c-.08-.16-.23-.35-.43-.35-.2 0-.35.2-.43.35l-1.97 3.98-4.38.65c-.23.03-.5.14-.5.4 0 .16.1.3.22.42l3.18 3.1-.76 4.36v.18c0 .23.1.44.35.44.12 0 .23-.04.34-.1l3.93-2.06 3.92 2.06c.1.06.22.1.34.1.25 0 .36-.2.36-.43v-.17l-.76-4.37 3.17-3.1c.12-.1.24-.25.24-.4zM300.33 292.15c0-.26-.28-.37-.5-.4l-4.37-.64-1.97-3.97c-.1-.16-.24-.35-.44-.35s-.35.2-.42.35l-1.97 3.98-4.4.65c-.2.03-.48.14-.48.4 0 .16.1.3.2.42l3.2 3.1-.76 4.36-.02.18c0 .23.12.44.37.44.1 0 .23-.04.34-.1l3.92-2.06 3.93 2.06c.1.06.2.1.34.1.25 0 .35-.2.35-.43v-.17l-.77-4.37 3.18-3.1c.12-.1.23-.25.23-.4zM317.73 292.15c0-.26-.28-.37-.5-.4l-4.38-.64-1.96-3.97c-.1-.16-.24-.35-.44-.35s-.35.2-.43.35l-1.96 3.98-4.4.65c-.2.03-.48.14-.48.4 0 .16.1.3.2.42l3.2 3.1-.76 4.36-.02.18c0 .23.1.44.37.44.1 0 .22-.04.34-.1l3.92-2.06 3.92 2.06c.1.06.23.1.35.1.26 0 .36-.2.36-.43 0-.06 0-.1-.02-.17l-.75-4.37 3.17-3.1c.12-.1.23-.25.23-.4zM335.13 292.15c0-.26-.28-.37-.5-.4l-4.38-.64-1.96-3.97c-.1-.16-.24-.35-.44-.35s-.35.2-.43.35l-1.97 3.98-4.38.65c-.22.03-.5.14-.5.4 0 .16.12.3.23.42l3.2 3.1-.76 4.36-.02.18c0 .23.1.44.36.44.13 0 .24-.04.35-.1l3.93-2.06 3.92 2.06c.1.06.23.1.35.1.25 0 .36-.2.36-.43 0-.06 0-.1-.02-.17l-.75-4.37 3.17-3.1c.1-.1.23-.25.23-.4z"/></g><path fill="#D8D8D8" d="M251 363h138v12H251z"/><path fill="#F3F3F3" d="M251 328.02h219v4H251z"/><path fill="#D8D8D8" d="M51 104h97.5v18.75H51z"/><path fill="#E0E3E6" d="M51 174h97.5v7.5H51zM70 189h60v7.5H70zM70 205h60v7.5H70z"/><g transform="translate(55)"><circle fill="#ABB1BA" cx="45" cy="45" r="45"/><g transform="translate(13.75 6.344)"><path d="M32.4 52.52c14.63 0 16.67-12.15 20.4-26.2 2.5-9.37.13-16.88-5.92-21.4-3.04-2.3-4.12-2.17-7-1.72C38.2 1.14 34.45.24 32.4.13 21.7-.43 9.48 9.3 11 23.45c1.54 14.14 6.78 29.07 21.4 29.07z" fill="#4B3C26"/><path d="M40.1 61.52c-4.45 5.46-11.74 5.27-16.2 0v-18.5c0-9.98 16.2-9.98 16.2 0v18.5z" fill="#FFDECC"/><path d="M40.1 43.03V55.4c-3.06 2.25-6.02 3.5-8.1 3.5s-5.03-1.25-8.1-3.5V43.04c0-10 16.2-10 16.2 0z" fill="#F7C5AA"/><path d="M32 9.83c-27.18 0-17.4 32.85-15.63 35.46C18.33 48.17 27.6 55.8 32 55.8c4.4 0 13.68-7.64 15.64-10.53C49.4 42.67 59.2 9.82 32 9.82z" fill="#FFDECC"/><ellipse fill="#4B3C26" transform="rotate(-16 27.784 10.796)" cx="27.78" cy="10.8" rx="14.65" ry="4.95"/><ellipse fill="#4B3C26" cx="42.67" cy="10.27" rx="8.13" ry="4.1"/><ellipse fill="#FFDECC" transform="rotate(-108.223 13.43 35.55)" cx="13.43" cy="35.55" rx="4.7" ry="2.72"/><ellipse fill="#FFDECC" transform="rotate(-71.772 50.294 35.55)" cx="50.29" cy="35.55" rx="4.7" ry="2.72"/><path d="M25.6 45.82c3.65.38 6.27-1.5 12.54-1.5-4.3 6.1-8.82 4.35-10.22 3.46-1.4-.9-2.33-1.96-2.33-1.96z" fill="#FFF"/><path d="M.2 71.22c.18-.25.38-.46.6-.65 1.86-1.65 8.52-5 23.1-11.57 2.26 4.83 11.33 7.4 16.2.34 14.06 6.35 20.95 9.45 22.98 11.12-8.14 8.15-19.4 13.2-31.83 13.2C19.2 83.66 8.27 78.92.2 71.22z" fill="#FFD16E"/></g></g></g></g><g transform="translate(747.905 104)"><use fill="#F9FAFA" xlink:href="#a"/><use stroke="#ABB1BA" mask="url(#d)" stroke-width="8" xlink:href="#a"/><use stroke="#ABB1BA" mask="url(#e)" stroke-width="4" xlink:href="#b"/><path d="M209.05 21.9c-2.1 0-3.8 1.7-3.8 3.8 0 2.1 1.7 3.82 3.8 3.82 2.1 0 3.8-1.7 3.8-3.8 0-2.1-1.7-3.82-3.8-3.82" fill="#ABB1BA"/></g><g transform="translate(774.095 156.38)"><rect fill="#E0E3E6" width="365.71" height="487.62" rx=".95"/><g transform="translate(62.375 50.25)"><rect fill="#FFF" y="31" width="240" height="196.48" rx="10"/><path d="M0 261c0-5.52 4.47-10 10-10h230v186.37H0V261z" fill="#FFF"/><path fill="#D8D8D8" d="M21 273h138v12H21z"/><g fill="#FFD500"><path d="M81.74 142.07c0-.35-.37-.5-.65-.54l-5.86-.85-2.62-5.3c-.1-.22-.3-.48-.57-.48-.27 0-.47.26-.57.48l-2.62 5.3-5.85.85c-.28.05-.64.2-.64.54 0 .2.15.4.3.56l4.23 4.12-1 5.82c-.02.1-.04.16-.04.24 0 .3.16.6.5.6.16 0 .3-.07.46-.15l5.23-2.75 5.23 2.75c.14.08.3.14.47.14.33 0 .47-.3.47-.6v-.23l-1-5.82 4.22-4.12c.15-.16.3-.35.3-.56zM104.94 142.07c0-.35-.37-.5-.65-.54l-5.86-.85-2.62-5.3c-.1-.22-.3-.48-.57-.48-.27 0-.47.26-.58.48l-2.62 5.3-5.84.85c-.3.05-.65.2-.65.54 0 .2.15.4.3.56l4.23 4.12-1 5.82-.02.24c0 .3.15.6.5.6.15 0 .3-.07.45-.15l5.25-2.75 5.23 2.75c.14.08.3.14.46.14.34 0 .48-.3.48-.6v-.23l-1-5.82 4.22-4.12c.15-.16.3-.35.3-.56zM128.13 142.07c0-.35-.37-.5-.65-.54l-5.85-.85-2.62-5.3c-.1-.22-.3-.48-.56-.48-.27 0-.46.26-.57.48l-2.62 5.3-5.85.85c-.3.05-.65.2-.65.54 0 .2.15.4.3.56l4.23 4.12-1 5.82-.02.24c0 .3.15.6.48.6.17 0 .32-.07.47-.15l5.24-2.75 5.23 2.75c.14.08.3.14.47.14.34 0 .48-.3.48-.6 0-.07 0-.14-.02-.23l-1-5.82 4.23-4.12c.15-.16.3-.35.3-.56zM151.33 142.07c0-.35-.37-.5-.65-.54l-5.85-.85-2.62-5.3c-.1-.22-.3-.48-.56-.48-.27 0-.47.26-.57.48l-2.62 5.3-5.85.85c-.3.05-.66.2-.66.54 0 .2.16.4.3.56l4.24 4.12-1 5.82-.03.24c0 .3.15.6.5.6.15 0 .3-.07.46-.15l5.24-2.75 5.23 2.75c.14.08.3.14.46.14.34 0 .48-.3.48-.6v-.23l-1-5.82 4.23-4.12c.15-.16.3-.35.3-.56zM174.53 142.07c0-.35-.38-.5-.66-.54l-5.84-.85-2.63-5.3c-.1-.22-.3-.48-.57-.48-.26 0-.46.26-.57.48l-2.62 5.3-5.85.85c-.3.05-.66.2-.66.54 0 .2.15.4.3.56l4.23 4.12-1 5.82-.02.24c0 .3.15.6.5.6.15 0 .3-.07.45-.15l5.23-2.75 5.23 2.75c.14.08.3.14.47.14.34 0 .48-.3.48-.6v-.23l-1-5.82 4.22-4.12c.15-.16.3-.35.3-.56z"/></g><g fill="#FFD500"><path d="M35.54 302.15c0-.26-.28-.37-.5-.4l-4.38-.64-1.96-3.97c-.08-.16-.23-.35-.43-.35-.2 0-.35.2-.43.35l-1.96 3.98-4.4.65c-.2.03-.48.14-.48.4 0 .16.1.3.22.42l3.18 3.1-.75 4.36-.02.18c0 .23.1.44.37.44.12 0 .23-.04.35-.1l3.92-2.06 3.92 2.06c.1.06.22.1.34.1.26 0 .36-.2.36-.43v-.17l-.76-4.37 3.17-3.1c.13-.1.24-.25.24-.4zM52.94 302.15c0-.26-.28-.37-.5-.4l-4.38-.64-1.97-3.97c-.08-.16-.23-.35-.43-.35-.2 0-.35.2-.43.35l-1.97 3.98-4.38.65c-.23.03-.5.14-.5.4 0 .16.1.3.22.42l3.18 3.1-.76 4.36v.18c0 .23.1.44.35.44.12 0 .23-.04.34-.1l3.93-2.06 3.92 2.06c.1.06.22.1.34.1.25 0 .36-.2.36-.43v-.17l-.76-4.37 3.17-3.1c.12-.1.24-.25.24-.4zM70.33 302.15c0-.26-.28-.37-.5-.4l-4.37-.64-1.97-3.97c-.1-.16-.24-.35-.44-.35s-.35.2-.42.35l-1.97 3.98-4.4.65c-.2.03-.48.14-.48.4 0 .16.1.3.2.42l3.2 3.1-.76 4.36-.02.18c0 .23.12.44.37.44.1 0 .23-.04.34-.1l3.92-2.06 3.93 2.06c.1.06.2.1.34.1.25 0 .35-.2.35-.43v-.17l-.77-4.37 3.18-3.1c.12-.1.23-.25.23-.4zM87.73 302.15c0-.26-.28-.37-.5-.4l-4.38-.64-1.96-3.97c-.1-.16-.24-.35-.44-.35s-.35.2-.43.35l-1.96 3.98-4.4.65c-.2.03-.48.14-.48.4 0 .16.1.3.2.42l3.2 3.1-.76 4.36-.02.18c0 .23.1.44.37.44.1 0 .22-.04.34-.1l3.92-2.06 3.92 2.06c.1.06.23.1.35.1.26 0 .36-.2.36-.43 0-.06 0-.1-.02-.17l-.75-4.37 3.17-3.1c.12-.1.23-.25.23-.4zM105.13 302.15c0-.26-.28-.37-.5-.4l-4.38-.64-1.96-3.97c-.1-.16-.24-.35-.44-.35s-.35.2-.43.35l-1.97 3.98-4.38.65c-.22.03-.5.14-.5.4 0 .16.12.3.23.42l3.2 3.1-.76 4.36-.02.18c0 .23.1.44.36.44.13 0 .24-.04.35-.1l3.93-2.06 3.92 2.06c.1.06.23.1.35.1.25 0 .36-.2.36-.43 0-.06 0-.1-.02-.17l-.75-4.37 3.17-3.1c.1-.1.23-.25.23-.4z"/></g><path fill="#D8D8D8" d="M21 373h138v12H21z"/><path fill="#F3F3F3" d="M21 338.02h219v4H21z"/><g fill="#FFD500"><path d="M35.54 402.15c0-.26-.28-.37-.5-.4l-4.38-.64-1.96-3.97c-.08-.16-.23-.35-.43-.35-.2 0-.35.2-.43.35l-1.96 3.98-4.4.65c-.2.03-.48.14-.48.4 0 .16.1.3.22.42l3.18 3.1-.75 4.36-.02.18c0 .23.1.44.37.44.12 0 .23-.04.35-.1l3.92-2.06 3.92 2.06c.1.06.22.1.34.1.26 0 .36-.2.36-.43v-.17l-.76-4.37 3.17-3.1c.13-.1.24-.25.24-.4zM52.94 402.15c0-.26-.28-.37-.5-.4l-4.38-.64-1.97-3.97c-.08-.16-.23-.35-.43-.35-.2 0-.35.2-.43.35l-1.97 3.98-4.38.65c-.23.03-.5.14-.5.4 0 .16.1.3.22.42l3.18 3.1-.76 4.36v.18c0 .23.1.44.35.44.12 0 .23-.04.34-.1l3.93-2.06 3.92 2.06c.1.06.22.1.34.1.25 0 .36-.2.36-.43v-.17l-.76-4.37 3.17-3.1c.12-.1.24-.25.24-.4zM70.33 402.15c0-.26-.28-.37-.5-.4l-4.37-.64-1.97-3.97c-.1-.16-.24-.35-.44-.35s-.35.2-.42.35l-1.97 3.98-4.4.65c-.2.03-.48.14-.48.4 0 .16.1.3.2.42l3.2 3.1-.76 4.36-.02.18c0 .23.12.44.37.44.1 0 .23-.04.34-.1l3.92-2.06 3.93 2.06c.1.06.2.1.34.1.25 0 .35-.2.35-.43v-.17l-.77-4.37 3.18-3.1c.12-.1.23-.25.23-.4zM87.73 402.15c0-.26-.28-.37-.5-.4l-4.38-.64-1.96-3.97c-.1-.16-.24-.35-.44-.35s-.35.2-.43.35l-1.96 3.98-4.4.65c-.2.03-.48.14-.48.4 0 .16.1.3.2.42l3.2 3.1-.76 4.36-.02.18c0 .23.1.44.37.44.1 0 .22-.04.34-.1l3.92-2.06 3.92 2.06c.1.06.23.1.35.1.26 0 .36-.2.36-.43 0-.06 0-.1-.02-.17l-.75-4.37 3.17-3.1c.12-.1.23-.25.23-.4zM105.13 402.15c0-.26-.28-.37-.5-.4l-4.38-.64-1.96-3.97c-.1-.16-.24-.35-.44-.35s-.35.2-.43.35l-1.97 3.98-4.38.65c-.22.03-.5.14-.5.4 0 .16.12.3.23.42l3.2 3.1-.76 4.36-.02.18c0 .23.1.44.36.44.13 0 .24-.04.35-.1l3.93-2.06 3.92 2.06c.1.06.23.1.35.1.25 0 .36-.2.36-.43 0-.06 0-.1-.02-.17l-.75-4.37 3.17-3.1c.1-.1.23-.25.23-.4z"/></g><path fill="#D8D8D8" d="M70.75 103.75h97.5v18.75h-97.5z"/><path fill="#E0E3E6" d="M71.3 174.35h97.5v7.5H71.3zM90.04 189.35h60v7.5h-60z"/><g transform="translate(73.607 .117)"><circle fill="#ABB1BA" cx="45" cy="45" r="45"/><g transform="translate(13.75 6.344)"><path d="M32.4 52.52c14.63 0 16.67-12.15 20.4-26.2 2.5-9.37.13-16.88-5.92-21.4-3.04-2.3-4.12-2.17-7-1.72C38.2 1.14 34.45.24 32.4.13 21.7-.43 9.48 9.3 11 23.45c1.54 14.14 6.78 29.07 21.4 29.07z" fill="#4B3C26"/><path d="M40.1 61.52c-4.45 5.46-11.74 5.27-16.2 0v-18.5c0-9.98 16.2-9.98 16.2 0v18.5z" fill="#FFDECC"/><path d="M40.1 43.03V55.4c-3.06 2.25-6.02 3.5-8.1 3.5s-5.03-1.25-8.1-3.5V43.04c0-10 16.2-10 16.2 0z" fill="#F7C5AA"/><path d="M32 9.83c-27.18 0-17.4 32.85-15.63 35.46C18.33 48.17 27.6 55.8 32 55.8c4.4 0 13.68-7.64 15.64-10.53C49.4 42.67 59.2 9.82 32 9.82z" fill="#FFDECC"/><ellipse fill="#4B3C26" transform="rotate(-16 27.784 10.796)" cx="27.78" cy="10.8" rx="14.65" ry="4.95"/><ellipse fill="#4B3C26" cx="42.67" cy="10.27" rx="8.13" ry="4.1"/><ellipse fill="#FFDECC" transform="rotate(-108.223 13.43 35.55)" cx="13.43" cy="35.55" rx="4.7" ry="2.72"/><ellipse fill="#FFDECC" transform="rotate(-71.772 50.294 35.55)" cx="50.29" cy="35.55" rx="4.7" ry="2.72"/><path d="M25.6 45.82c3.65.38 6.27-1.5 12.54-1.5-4.3 6.1-8.82 4.35-10.22 3.46-1.4-.9-2.33-1.96-2.33-1.96z" fill="#FFF"/><path d="M.2 71.22c.18-.25.38-.46.6-.65 1.86-1.65 8.52-5 23.1-11.57 2.26 4.83 11.33 7.4 16.2.34 14.06 6.35 20.95 9.45 22.98 11.12-8.14 8.15-19.4 13.2-31.83 13.2C19.2 83.66 8.27 78.92.2 71.22z" fill="#FFD16E"/></g></g></g></g><g><g transform="translate(1054.57 280)"><use fill="#F9FAFA" xlink:href="#c"/><use stroke="#ABB1BA" mask="url(#f)" stroke-width="8" xlink:href="#c"/></g><path d="M1170.76 304.7c0 1.07-.7 1.92-1.56 1.92H1139c-.87 0-1.57-.85-1.57-1.9 0-1.06.7-1.9 1.56-1.9h30.2c.86 0 1.56.84 1.56 1.9M1122.2 307.1c-1.32 0-2.4-1.07-2.4-2.4 0-1.3 1.08-2.37 2.4-2.37 1.3 0 2.37 1.07 2.37 2.38 0 1.33-1.07 2.4-2.38 2.4" fill="#ABB1BA"/><path d="M1154.1 655.67c-7.1 0-12.86 5.75-12.86 12.85s5.75 12.86 12.85 12.86 12.85-5.76 12.85-12.86-5.76-12.85-12.86-12.85z" stroke="#ABB1BA" stroke-width="2"/><g><path d="M1243.14 645.15c0 .55-.44 1-1 1h-176.57c-.55 0-1-.45-1-1V329.52c0-.55.45-1 1-1h176.58c.55 0 1 .45 1 1v315.63z" fill="#E0E3E6"/><g transform="translate(1099.57 376.524)"><rect fill="#FFF" x=".43" y="24.48" width="108" height="157.18" rx="8"/><g fill="#FFD500"><path d="M23.8 113.65c0-.28-.3-.4-.53-.43l-4.68-.68-2.1-4.24c-.1-.17-.25-.38-.46-.38-.2 0-.37.2-.46.38l-2.1 4.24-4.67.68c-.23.04-.5.15-.5.43 0 .17.1.33.22.45l3.4 3.3-.8 4.66c-.02.07-.03.12-.03.2 0 .23.1.45.38.45.13 0 .25-.03.38-.1l4.18-2.2 4.18 2.2c.12.07.25.1.38.1.27 0 .38-.2.38-.45v-.2l-.8-4.65 3.37-3.3c.12-.12.24-.28.24-.45zM42.35 113.65c0-.28-.3-.4-.52-.43l-4.68-.68-2.1-4.24c-.08-.17-.24-.38-.45-.38-.22 0-.38.2-.46.38l-2.1 4.24-4.68.68c-.23.04-.52.15-.52.43 0 .17.12.33.24.45l3.4 3.3-.8 4.66c-.02.07-.03.12-.03.2 0 .23.12.45.4.45.12 0 .24-.03.36-.1l4.2-2.2 4.18 2.2c.1.07.24.1.37.1.27 0 .4-.2.4-.45 0-.07 0-.12-.02-.2l-.8-4.65 3.38-3.3c.13-.12.25-.28.25-.45zM60.9 113.65c0-.28-.3-.4-.5-.43l-4.7-.68-2.1-4.24c-.07-.17-.23-.38-.45-.38-.2 0-.37.2-.45.38l-2.1 4.24-4.68.68c-.23.04-.52.15-.52.43 0 .17.12.33.23.45l3.4 3.3-.8 4.66c-.02.07-.03.12-.03.2 0 .23.13.45.4.45.13 0 .25-.03.37-.1l4.18-2.2 4.2 2.2c.1.07.23.1.36.1.28 0 .4-.2.4-.45 0-.07 0-.12-.02-.2l-.8-4.65 3.38-3.3c.13-.12.25-.28.25-.45zM79.46 113.65c0-.28-.3-.4-.52-.43l-4.68-.68-2.1-4.24c-.08-.17-.24-.38-.45-.38-.2 0-.36.2-.45.38l-2.1 4.24-4.67.68c-.24.04-.52.15-.52.43 0 .17.12.33.23.45l3.38 3.3-.8 4.66-.02.2c0 .23.12.45.4.45.12 0 .24-.03.37-.1l4.18-2.2 4.2 2.2c.1.07.24.1.37.1.27 0 .38-.2.38-.45v-.2l-.8-4.65 3.37-3.3c.12-.12.24-.28.24-.45zM98.02 113.65c0-.28-.3-.4-.52-.43l-4.68-.68-2.1-4.24c-.08-.17-.24-.38-.45-.38-.22 0-.38.2-.46.38l-2.1 4.24-4.67.68c-.23.04-.52.15-.52.43 0 .17.13.33.25.45l3.4 3.3-.8 4.66c-.02.07-.03.12-.03.2 0 .23.12.45.4.45.12 0 .24-.03.36-.1l4.2-2.2 4.17 2.2c.1.07.24.1.37.1.27 0 .4-.2.4-.45 0-.07 0-.12-.02-.2l-.8-4.65 3.38-3.3c.12-.12.24-.28.24-.45z"/></g><path fill="#D8D8D8" d="M15 83h78v15H15z"/><path fill="#E0E3E6" d="M15.43 139.48h78v6h-78zM30.43 151.48h48v6h-48z"/><g transform="translate(17.286 .093)"><circle fill="#ABB1BA" cx="36" cy="36" r="36"/><g transform="translate(11 5.075)"><path d="M25.93 42.02c11.7 0 13.33-9.73 16.3-20.97 2-7.5.1-13.5-4.72-17.13-2.43-1.82-3.3-1.72-5.6-1.36C30.56.9 27.56.2 25.93.1 17.35-.33 7.58 7.45 8.8 18.77c1.24 11.3 5.43 23.26 17.13 23.26z" fill="#4B3C26"/><path d="M32.08 49.22c-3.56 4.36-9.4 4.2-12.96 0v-14.8c0-7.98 12.96-7.98 12.96 0v14.8z" fill="#FFDECC"/><path d="M32.08 34.42v9.9c-2.45 1.8-4.8 2.8-6.48 2.8-1.66 0-4.03-1-6.48-2.8v-9.9c0-7.98 12.96-7.98 12.96 0z" fill="#F7C5AA"/><path d="M25.6 7.86c-21.75 0-13.93 26.28-12.5 28.37 1.56 2.3 9 8.43 12.5 8.43 3.52 0 10.94-6.12 12.5-8.43 1.43-2.1 9.25-28.37-12.5-28.37z" fill="#FFDECC"/><ellipse fill="#4B3C26" transform="rotate(-16 22.227 8.637)" cx="22.23" cy="8.64" rx="11.72" ry="3.96"/><ellipse fill="#4B3C26" cx="34.14" cy="8.22" rx="6.5" ry="3.28"/><ellipse fill="#FFDECC" transform="rotate(-108.223 10.743 28.44)" cx="10.74" cy="28.44" rx="3.76" ry="2.18"/><ellipse fill="#FFDECC" transform="rotate(-71.772 40.236 28.44)" cx="40.24" cy="28.44" rx="3.76" ry="2.18"/><path d="M20.47 36.65c2.93.3 5.02-1.2 10.05-1.2-3.45 4.88-7.07 3.5-8.18 2.77-1.12-.7-1.87-1.57-1.87-1.57z" fill="#FFF"/><path d="M.15 56.97c.16-.2.32-.37.48-.5 1.5-1.34 6.83-4.02 18.5-9.27 1.8 3.86 9.05 5.92 12.94.27 11.26 5.08 16.77 7.56 18.4 8.9C43.95 62.9 34.95 66.93 25 66.93c-9.64 0-18.4-3.8-24.85-9.96z" fill="#FFD16E"/></g></g></g></g></g></g></svg>