<svg width="72" height="72" viewBox="0 0 72 72" xmlns="http://www.w3.org/2000/svg"><title>trust-calendar</title><g fill-rule="nonzero" fill="none"><path fill="#F05565" d="M53 11v4h-7v-4H22v4h-7v-4H7v11h54V11"/><path fill="#EFEBDE" d="M15 22H7v43h54V22H22"/><path d="M44 29H15v29h38V29h-9zm-9 2h7v7h-7v-7zm7 16h-7v-7h7v7zm-16-7h7v7h-7v-7zm0-9h7v7h-7v-7zm-9 0h7v7h-7v-7zm0 9h7v7h-7v-7zm7 16h-7v-7h7v7zm9 0h-7v-7h7v7zm9 0h-7v-7h7v7zm9 0h-7v-7h7v7zm0-9h-7v-7h7v7zm-7-9v-7h7v7h-7z" fill="#D5D0BB"/><path fill="#36495E" d="M15 7h7v8h-7zM46 7h7v8h-7z"/><path fill="#7F6E5D" d="M26 40h7v7h-7z"/><g transform="translate(41 40)"><circle fill="#F29C21" cx="12" cy="12" r="12"/><g fill="#FFF"><path d="M15.54 16.95l-8.5-8.5c-.38-.38-.38-1 0-1.4.4-.4 1.03-.4 1.42 0l8.5 8.5c.38.38.38 1 0 1.4-.4.4-1.03.4-1.42 0z"/><path d="M7.05 15.54l8.5-8.5c.38-.38 1-.38 1.4 0 .4.4.4 1.03 0 1.42l-8.5 8.5c-.38.38-1 .38-1.4 0-.4-.4-.4-1.03 0-1.42z"/></g></g></g></svg>