<svg width="72" height="72" viewBox="0 0 72 72" xmlns="http://www.w3.org/2000/svg"><title>trust-credit-card</title><g fill-rule="nonzero" fill="none"><path d="M61.78 57H10.22C8.44 57 7 55.56 7 53.78V18.22C7 16.44 8.44 15 10.22 15h51.56c1.78 0 3.22 1.44 3.22 3.22v35.56c0 1.78-1.44 3.22-3.22 3.22" fill="#CCB375"/><path d="M22 43h-9c-.55 0-1 .45-1 1s.45 1 1 1h9c.55 0 1-.45 1-1s-.45-1-1-1M36 44c0-.55-.45-1-1-1h-9c-.55 0-1 .45-1 1s.45 1 1 1h9c.55 0 1-.45 1-1M14 48h-1c-.55 0-1 .45-1 1s.45 1 1 1h1c.55 0 1-.45 1-1s-.45-1-1-1M20 48h-2c-.55 0-1 .45-1 1s.45 1 1 1h2c.55 0 1-.45 1-1s-.45-1-1-1M25 48h-1c-.55 0-1 .45-1 1s.45 1 1 1h1c.55 0 1-.45 1-1s-.45-1-1-1M31 48h-2c-.55 0-1 .45-1 1s.45 1 1 1h2c.55 0 1-.45 1-1s-.45-1-1-1M34.3 48.3c-.2.18-.3.44-.3.7 0 .26.1.52.3.7.18.2.44.3.7.3.26 0 .52-.1.7-.3.2-.18.3-.44.3-.7 0-.26-.1-.52-.3-.7-.37-.38-1.05-.38-1.4 0" fill="#7A693C"/><path d="M53 46c0 3.3-2.7 6-6 6s-6-2.7-6-6 2.7-6 6-6 6 2.7 6 6" fill="#E74C3D"/><path d="M60 46c0 3.3-2.7 6-6 6s-6-2.7-6-6 2.7-6 6-6 6 2.7 6 6M27.75 35h-13.5c-.7 0-1.25-.56-1.25-1.25v-9.5c0-.7.56-1.25 1.25-1.25h13.5c.7 0 1.25.56 1.25 1.26v9.5c0 .68-.56 1.24-1.25 1.24" fill="#F0C41B"/><path d="M27.75 36h-13.5C13 36 12 35 12 33.75v-9.5c0-1.24 1-2.25 2.25-2.25h13.5c1.24 0 2.25 1 2.25 2.26v9.5c0 1.23-1 2.24-2.25 2.24zm-13.5-12c-.14 0-.25.1-.25.26v9.5c0 .13.1.24.25.24h13.5c.14 0 .25-.1.25-.25v-9.5c0-.14-.1-.25-.25-.25h-13.5z" fill="#F3D55C"/><path d="M29 24.26c0-.7-.56-1.26-1.25-1.26h-7.49c-.7 0-1.26.56-1.26 1.26v9.49c0 .7.56 1.25 1.26 1.25h1.48c.7 0 1.26-.56 1.26-1.25v-5.5c0-.7.56-1.25 1.25-1.25h3.5c.7 0 1.25-.56 1.25-1.26v-1.48z" fill="#F0C41B"/><path d="M21.74 36h-1.48C19 36 18 35 18 33.75v-9.5c0-1.24 1-2.25 2.26-2.25h7.5c1.23 0 2.24 1 2.24 2.26v1.48C30 27 29 28 27.75 28h-3.5c-.14 0-.25.1-.25.26v5.5c0 1.23-1 2.24-2.25 2.24zm-1.48-12c-.15 0-.26.1-.26.26v9.5c0 .13.1.24.26.24h1.48c.15 0 .26-.1.26-.25v-5.5c0-1.24 1-2.25 2.25-2.25h3.5c.14 0 .25-.1.25-.26v-1.48c0-.15-.1-.26-.25-.26h-7.5z" fill="#F3D55C"/><path d="M23 31h6" fill="#F0C41B"/><path d="M29 32h-6c-.55 0-1-.45-1-1s.45-1 1-1h6c.55 0 1 .45 1 1s-.45 1-1 1" fill="#F3D55C"/><path d="M19 27h-6" fill="#F0C41B"/><path d="M19 28h-6c-.55 0-1-.45-1-1s.45-1 1-1h6c.55 0 1 .45 1 1s-.45 1-1 1" fill="#F3D55C"/><path d="M19 31h-6" fill="#F0C41B"/><path d="M19 32h-6c-.55 0-1-.45-1-1s.45-1 1-1h6c.55 0 1 .45 1 1s-.45 1-1 1" fill="#F3D55C"/></g></svg>