<?xml version="1.0" encoding="UTF-8"?>
<svg width="37px" height="13px" viewBox="0 0 37 13" version="1.1" xmlns="http://www.w3.org/2000/svg" xmlns:xlink="http://www.w3.org/1999/xlink">
    <!-- Generator: Sketch 53.1 (72631) - https://sketchapp.com -->
    <title>Visa_Inc._logo</title>
    <desc>Created with Sketch.</desc>
    <g id="Symbols" stroke="none" stroke-width="1" fill="none" fill-rule="evenodd">
        <g id="Carte" transform="translate(-455.000000, -213.000000)" fill="#1A1F71" fill-rule="nonzero">
            <g id="Pay" transform="translate(-1.000000, -1.000000)">
                <g id="Card-number" transform="translate(2.733288, 171.500000)">
                    <g id="Group" transform="translate(0.536530, 28.000000)">
                        <g id="VISA" transform="translate(447.678294, 5.500000)">
                            <g id="Visa_Inc._logo" transform="translate(5.922405, 8.712141)">
                                <polygon id="polygon9" points="15.6638456 12.1843309 12.7491034 12.1843309 14.572192 0.911720552 17.4867748 0.911720552"/>
                                <path d="M26.230045,1.18730371 C25.6551297,0.959218401 24.7432666,0.707384169 23.6157506,0.707384169 C20.7373491,0.707384169 18.7104023,2.24229788 18.6979699,4.43676226 C18.6740616,6.05583323 20.1492046,6.95510458 21.2524935,7.4949543 C22.380169,8.04659878 22.7634989,8.40665798 22.7634989,8.89837228 C22.7520229,9.6535562 21.8522734,10.0016612 21.0130916,10.0016612 C19.8493943,10.0016612 19.2258655,9.82218951 18.2782994,9.40204075 L17.8944912,9.22193146 L17.4866154,11.7523873 C18.1702338,12.063833 19.4297237,12.3402131 20.7373491,12.3523266 C23.7957005,12.3523266 25.7867848,10.8411618 25.8103744,8.50261001 C25.8220097,7.21937114 25.0430769,6.23610191 23.363757,5.4326232 C22.3443065,4.91684119 21.7199807,4.56905492 21.7199807,4.04131876 C21.7319349,3.5615586 22.2480357,3.07016307 23.3988225,3.07016307 C24.3463886,3.04609537 25.0425987,3.2738619 25.5700161,3.50178782 L25.8336451,3.62148877 L26.230045,1.18730371 L26.230045,1.18730371 L26.230045,1.18730371 Z" id="path11"/>
                                <path d="M30.1039886,8.1908456 C30.3440281,7.54324909 31.2676859,5.03686092 31.2676859,5.03686092 C31.2555724,5.06092862 31.5072472,4.37731025 31.6511753,3.95763966 L31.8548741,4.92895473 C31.8548741,4.92895473 32.4068374,7.62724696 32.5266977,8.1908456 C32.0711647,8.1908456 30.6797008,8.1908456 30.1039886,8.1908456 L30.1039886,8.1908456 Z M33.701871,0.911720552 L31.4473171,0.911720552 C30.7520633,0.911720552 30.223849,1.11541938 29.9238793,1.84701377 L25.5944026,12.1841715 L28.652754,12.1841715 C28.652754,12.1841715 29.1562631,10.792867 29.2644881,10.4932162 C29.6000014,10.4932162 32.5751519,10.4932162 33.0067766,10.4932162 C33.0904557,10.8889784 33.3545629,12.1841715 33.3545629,12.1841715 L36.0533333,12.1841715 L33.701871,0.911720552 L33.701871,0.911720552 L33.701871,0.911720552 Z" id="path13"/>
                                <path d="M10.3145996,0.911720552 L7.4601064,8.59856204 L7.1481826,7.03958062 C6.62044643,5.24071914 4.9653536,3.28629422 3.11835671,2.31450098 L5.73296985,12.1723767 L8.81522959,12.1723767 L13.3967,0.911720552 L10.3145996,0.911720552 L10.3145996,0.911720552 L10.3145996,0.911720552 Z" id="path15"/>
                                <path d="M4.8094714,0.911720552 L0.119935453,0.911720552 L0.0719594383,1.13948708 C3.73009075,2.07493969 6.15279983,4.3298124 7.1481826,7.04005879 L6.12873213,1.8592867 C5.96089577,1.13932769 5.44511376,0.935469477 4.8094714,0.911720552 L4.8094714,0.911720552 Z" id="path17"/>
                            </g>
                        </g>
                    </g>
                </g>
            </g>
        </g>
    </g>
</svg>