<svg height="120" viewBox="0 0 478 120" width="478" xmlns="http://www.w3.org/2000/svg"><g fill="none" fill-rule="evenodd"><g fill="#0078fa" transform="translate(.5 .423014)"><path d="m13.3275005 49.0498747c-1.9464539 1.8838794-3.0453771 4.47681-3.0453771 7.185626v42.3561295c0 5.5228478 4.4771525 9.9999998 10 9.9999998h74c5.5228475 0 9.9999996-4.477152 9.9999996-9.9999998v-42.3561295c0-2.708816-1.098923-5.3017466-3.045377-7.185626l-36.9999997-35.8105263c-3.8771408-3.75249874-10.032105-3.75249874-13.9092458 0zm-6.95462293-7.1856259 37.00000003-35.81052636c7.7542816-7.50499746 20.06421-7.50499746 27.8184916 0l36.9999998 35.81052636c3.892908 3.7677587 6.090754 8.9536199 6.090754 14.3712519v42.3561295c0 11.0456948-8.954305 19.9999998-19.9999996 19.9999998h-74c-11.04569502 0-20.00000003-8.954305-20.00000003-19.9999998v-42.3561295c0-5.417632 2.19784652-10.6034932 6.0907542-14.3712519z" fill-rule="nonzero"/><path d="m94.1406002 88.5016117v.0015036l-.0167483.0133366c-.0216093.0187224-.0440292.0365339-.0672002.0533747-6.6266102 5.2525304-14.6981366 8.4749374-23.4432918 8.827557h-3.2098075c-8.7492286-.3527839-16.8242008-3.5780292-23.4525508-8.8348982l-.0000491-.0028126c-.2432588-.1824111-.4006496-.4731056-.4006496-.8005607 0-.3149113.1455635-.5958244.3730761-.7791252l-.0000467-.0026753 5.6599289-5.2068856c.1833651-.2119032.4542706-.3459687.7564888-.3459687.2559589 0 .4894572.0961648.6663365.2543357h.0052992c5.1931645 3.6403486 11.3711763 5.750894 17.9970705 5.750894 6.6255881 0 12.8033351-2.1103504 17.9963507-5.7503894.1773723-.158171.4108706-.2543358.6668294-.2543358.2860008 0 .5439593.1200633.7262224.3125368l5.7132053 5.2558975c.2190117.1834384.3582856.458942.3582856.7669748 0 .2939485-.1268289.5582745-.3287494.7412408z" fill-rule="evenodd"/></g><path d="m65.8722897 58.8072616c7.9405894 0 14.3777089-6.4371196 14.3777089-14.3777089 0-7.9405894-6.4371195-14.3777089-14.3777089-14.3777089-7.9405893 0-14.3777088 6.4371195-14.3777088 14.3777089 0 7.9405893 6.4371195 14.3777089 14.3777088 14.3777089zm0 10.9999998c-14.0157215 0-25.3777087-11.3619872-25.3777087-25.3777087s11.3619872-25.3777087 25.3777087-25.3777087 25.3777088 11.3619872 25.3777088 25.3777087-11.3619873 25.3777087-25.3777088 25.3777087zm-65.05479635-68.37076854-.36648141-.58649287h.69136456c-.17658285.15540668-.28797392.36431755-.32488315.58649287zm21.07857615 34.67631314-21.39108178-34.23288674c-.29266633-.46836403-.1502352-1.08530103.31812883-1.37796736.15891385-.0993004.34253149-.15195191.52991927-.15195191h10.61260538c.3448235 0 .6653195.17765387.8480481.47008074l14.5657876 23.31013277 14.5657875-23.31013277c.1827286-.29242687.5032246-.47008074.8480481-.47008074h10.6126054c.5522848 0 1 .44771525 1 1 0 .18738778-.0526515.37100542-.1519519.52991927l-21.3578967 34.17977954v31.6903c0 .5522848-.4477153 1-1 1h-8.9999998c-.5522848 0-1-.4477152-1-1zm124.7044435-14.6911502c0-.5246705.425329-.95.95-.95h8.67305c.511122 0 .93063.4044064.949361.9151857l.041175 1.1260388.009716 1.6623006c3.308756-2.9853113 6.97141-4.6840616 10.993821-5.0914425.42637-.0212404.854255-.0318944 1.283396-.0318944 14.015721 0 25.377708 11.3619872 25.377708 25.3777087 0 13.9851743-11.314499 25.3333847-25.301815 25.3775254-4.577849-.096078-8.619482-1.7332028-12.115058-4.905772l.134526 23.0147958.000016.0055528c0 .5246705-.425329.95-.95.95h-9.095896c-.524671 0-.95-.4253295-.95-.95v-32.5984238l-.000511-21.7851171.000511-.0022394zm22.900519 37.3703923c7.932187 0 14.362495-6.4303082 14.362495-14.3624954s-6.430308-14.3624954-14.362495-14.3624954c-7.932188 0-14.362496 6.4303082-14.362496 14.3624954s6.430308 14.3624954 14.362496 14.3624954zm-52.243349 1.1896871c5.242836-.5861269 10.378984-3.6138404 10.875677-6.414681v-32.1652103c0-.5246705.425329-.9499999.95-.9499999h9.1c.52467 0 .95.4253294.95.9499999v46.1999993c0 .5246705-.42533.9499999-.95.9499999h-9.1c-.524671 0-.95-.4253294-.95-.9499999v-1.6216371c-2.212301 1.8657089-9.386093 3.8270569-14.423072 3.8270569-5.169896 0-8.687209-.6590957-11.6046-2.6848608-3.8104601-2.6458908-5.855688-7.4296621-5.855688-14.9205588v-30.7999995c0-.5246705.4253295-.9499999.95-.9499999h9.1c.52467 0 .95.4253294.95.9499999v31.0499995h-.005257c.11255 5.6965582 4.089412 8.192117 10.01294 7.5298918zm82.622317 7.620108v-46.1895138c0-.5246705.425329-.95.95-.95h9.1c.52467 0 .95.4253295.95.95v46.1895138c0 .5246705-.42533.9499999-.95.9499999h-9.1c-.524671 0-.95-.4253294-.95-.9499999zm5.520562-54.4385625c-1.65139 0-3.080521-.5951927-4.275019-1.7796556-1.195016-1.1849773-1.795543-2.61269855-1.795543-4.2703444 0-1.65705966.593218-3.08439628 1.774002-4.2693679 1.181148-1.18533666 2.617673-1.7806321 4.29656-1.7806321 1.624279 0 3.039602.59539584 4.233895 1.77965556 1.195016 1.18497734 1.795543 2.61269858 1.795543 4.27034444 0 1.65764585-.600527 3.0853671-1.795543 4.2703444-1.194293 1.1842598-2.609616 1.7796556-4.233895 1.7796556zm86.982705 54.2867182v-12.1142187l-.000511-.0022393.000511-21.7851171v-32.59842381c0-.52467051.425329-.94999999.95-.94999999h9.095896c.524671 0 .95.42532948.95.94999999l-.000016.00555283-.134526 23.01479578c3.495576-3.1725692 7.537209-4.809694 12.115058-4.905772 13.987316.0441407 25.301815 11.3923511 25.301815 25.3775254 0 14.0157215-11.361987 25.3777087-25.377708 25.3777087-.429141 0-.857026-.010654-1.283396-.0318945-4.022411-.4073808-7.685065-2.1061311-10.993821-5.0914424l-.009716 1.6623005-.041175 1.1260389c-.018731.5107793-.438239.9151856-.949361.9151856h-8.67305c-.524671 0-.95-.4253294-.95-.9499999zm22.732085-37.3703923c-7.932187 0-14.362495 6.4303082-14.362495 14.3624954s6.430308 14.3624954 14.362495 14.3624954c7.932188 0 14.362496-6.4303082 14.362496-14.3624954s-6.430308-14.3624954-14.362496-14.3624954zm-53.355504 28.727655c7.94059 0 14.377709-6.4371196 14.377709-14.3777089 0-7.9405894-6.437119-14.3777089-14.377709-14.3777089-7.940589 0-14.377709 6.4371195-14.377709 14.3777089 0 7.9405893 6.43712 14.3777089 14.377709 14.3777089zm.240616 10.9999998c-14.015721 0-25.377708-11.3619872-25.377708-25.3777087s11.361987-25.3777087 25.377708-25.3777087c14.015722 0 25.377709 11.3619872 25.377709 25.3777087s-11.361987 25.3777087-25.377709 25.3777087zm-30.619297-13.3807711c-.04064 19.3264445-2.099208 32.2572343-23.292649 32.8053757-.11502.0029749-.252583.0056762-.41269.0081039-.552221.0083742-1.006673-.4325017-1.015047-.9847233-.000077-.0050553-.000115-.010111-.000115-.0151668l.000071-7.4555211c.000003-.5522667.447706-.999965.999972-.9999622.007121 0 .014242.0000761.021362.0002283.012409.0002652.024518.000532.036329.0008005 6.508855.1479423 12.6634.9512917 12.6634-23.9724148v-34.3467877c0-.5522848.447715-1 1-1h9c.552284 0 1 .4477152 1 1v34.9600675zm-5.528188-43.2486308c-1.653247 0-3.078439-.593552-4.275618-1.7806738-1.197179-1.1871217-1.79576-2.61021625-1.79576-4.2693262 0-1.65910996.591455-3.08220447 1.774382-4.26932625 1.182927-1.18712177 2.615244-1.78067375 4.296996-1.78067375 1.624743 0 3.035683.59355198 4.232862 1.78067375 1.197179 1.18712178 1.79576 2.61021629 1.79576 4.26932625 0 1.65910995-.598581 3.0822045-1.79576 4.2693262-1.197179 1.1871218-2.608119 1.7806738-4.232862 1.7806738z" fill="#007afb" fill-rule="nonzero" transform="translate(136.5 24.449999)"/></g></svg>