<svg height="122" viewBox="0 0 115 122" width="115" xmlns="http://www.w3.org/2000/svg"><g fill="#0078fa" fill-rule="evenodd" transform="translate(.5 .423014)"><path d="m13.3275005 49.8742423c-1.9464539 1.9155413-3.0453771 4.5520505-3.0453771 7.3063928v43.0679969c0 5.615669 4.4771525 10.168068 10 10.168068h74c5.5228475 0 9.9999996-4.552399 9.9999996-10.168068v-43.0679969c0-2.7543423-1.098923-5.3908515-3.045377-7.3063928l-36.9999997-36.4123839c-3.8771408-3.81556589-10.032105-3.81556589-13.9092458 0zm-6.95462293-7.3063927 37.00000003-36.41238393c7.7542816-7.63113187 20.06421-7.63113187 27.8184916 0l36.9999998 36.41238393c3.892908 3.8310824 6.090754 9.1041009 6.090754 14.6127855v43.0679969c0 11.231337-8.954305 20.336135-19.9999996 20.336135h-74c-11.04569502 0-20.00000003-9.104798-20.00000003-20.336135v-43.0679969c0-5.5086846 2.19784652-10.7817031 6.0907542-14.6127855z" fill-rule="nonzero"/><path d="m94.1406002 89.9890337v.001529l-.0167483.0135606c-.0216093.0190372-.0440292.037148-.0672002.0542718-6.6266102 5.3408083-14.6981366 8.6173733-23.4432918 8.9759193h-3.2098075c-8.7492286-.358713-16.8242008-3.6381641-23.4525508-8.9833839l-.0000491-.0028599c-.2432588-.1854768-.4006496-.4810569-.4006496-.8140155 0-.3202039.1455635-.6058382.3730761-.7922197l-.0000467-.0027202 5.6599289-5.2943963c.1833651-.2154646.4542706-.3517833.7564888-.3517833.2559589 0 .4894572.097781.6663365.2586103h.0052992c5.1931645 3.7015309 11.3711763 5.8475476 17.9970705 5.8475476 6.6255881 0 12.8033351-2.1458185 17.9963507-5.8470346.1773723-.1608293.4108706-.2586103.6668294-.2586103.2860008 0 .5439593.1220811.7262224.3177894l5.7132053 5.344232c.2190117.1865213.3582856.4666553.3582856.7798651 0 .2988888-.1268289.5676573-.3287494.7536986z" fill-rule="evenodd"/></g></svg>