<svg height="119" viewBox="0 0 113 119" width="113" xmlns="http://www.w3.org/2000/svg"><g fill="#fff" fill-rule="evenodd" transform="translate(0 -.228346)"><path d="m13.0957179 49.0498747c-1.9126025 1.8838794-2.9924141 4.47681-2.9924141 7.185626v42.3561295c0 5.5228478 4.399289 9.9999998 9.826087 9.9999998h72.7130435c5.4267979 0 9.8260867-4.477152 9.8260867-9.9999998v-42.3561295c0-2.708816-1.079811-5.3017466-2.9924138-7.185626l-36.3565217-35.8105263c-3.8097123-3.75249874-9.8576336-3.75249874-13.6673459 0zm-6.83367298-7.1856259 36.35652178-35.81052636c7.6194245-7.50499746 19.7152672-7.50499746 27.3346917 0l36.3565216 35.81052636c3.825205 3.7677587 5.984828 8.9536199 5.984828 14.3712519v42.3561295c0 11.0456948-8.798578 19.9999998-19.6521737 19.9999998h-72.7130435c-10.85359596 0-19.65217392-8.954305-19.65217392-19.9999998v-42.3561295c0-5.417632 2.15962309-10.6034932 5.98482804-14.3712519z" fill-rule="nonzero"/><path d="m92.5033723 88.5016117v.0015036l-.0164569.0133366c-.0212335.0187224-.0432635.0365339-.0660315.0533747-6.5113648 5.2525304-14.4425169 8.4749374-23.0355824 8.827557h-3.1539848c-8.5970681-.3527839-16.531606-3.5780292-23.0446804-8.8348982l-.0000482-.0028126c-.2390282-.1824111-.3936817-.4731056-.3936817-.8005607 0-.3149113.1430318-.5958244.3665877-.7791252l-.0000459-.0026753 5.5614954-5.2068856c.1801761-.2119032.4463703-.3459687.7433325-.3459687.2515074 0 .4809449.0961648.654748.2543357h.005207c5.1028487 3.6403486 11.1734167 5.750894 17.684078 5.750894 6.5103605 0 12.5806684-2.1103504 17.6833707-5.7503894.1742876-.158171.4037251-.2543358.6552324-.2543358.2810269 0 .5344991.1200633.7135925.3125368l5.6138452 5.2558975c.2152028.1834384.3520545.458942.3520545.7669748 0 .2939485-.1246232.5582745-.3230321.7412408z" fill-rule="evenodd"/></g></svg>