<svg height="476" viewBox="0 0 708 476" width="708" xmlns="http://www.w3.org/2000/svg"><g fill="none" fill-rule="evenodd"><g fill="#0078fa" transform="translate(238.319999 -.634163)"><path d="m27.2441439 102.387544c-3.9789508 3.932442-6.2253753 9.34497-6.2253753 14.999399v88.414906c0 11.528486 9.1522178 20.874171 20.4420506 20.874171h151.2711748c11.289832 0 20.44205-9.345685 20.44205-20.874171v-88.414906c0-5.654429-2.246424-11.066957-6.225375-14.999399l-75.635587-74.7515025c-7.925671-7.8330298-20.50768-7.8330298-28.433351 0zm-14.2166753-14.9993976 75.6355872-74.751503c15.8513422-15.66605962 41.0153592-15.66605962 56.8667012 0l75.635587 74.751503c7.957902 7.8648838 12.450751 18.6899386 12.450751 29.9987966v88.414906c0 23.056972-18.304436 41.748341-40.884101 41.748341h-151.2711748c-22.5796656 0-40.88410117-18.691369-40.88410117-41.748341v-88.414906c0-11.308858 4.49284896-22.1339128 12.45075057-29.9987966z" fill-rule="nonzero"/><path d="m192.442691 184.739773v.003138l-.034237.027839c-.044174.039082-.090004.076262-.137371.111416-13.54615 10.964221-30.046005 17.690728-47.922895 18.426793h-6.561505c-17.885218-.736408-34.392117-7.46884-47.9418232-18.442118l-.0001004-.005871c-.4972707-.380768-.8190098-.987568-.8190098-1.671104 0-.657351.2975615-1.243734.7626439-1.626359l-.0000954-.005584 11.5700559-10.868942c.374835-.44233.928622-.722181 1.546418-.722181.523232 0 1.000551.200736 1.362128.530905h.010833c10.615893 7.598925 23.245016 12.004514 36.789702 12.004514 13.544061 0 26.172643-4.405182 36.788232-12.003461.362585-.330169.839903-.530905 1.363136-.530905.584644 0 1.111964.250622 1.484547.652395l11.678963 10.97125c.447705.382912.732409.958003.732409 1.600996 0 .613593-.259264 1.165352-.672031 1.547279z" fill-rule="evenodd"/></g><path d="m136.948493 122.260299c16.508486 0 29.891257-13.382772 29.891257-29.8912572 0-16.5084856-13.382771-29.8912573-29.891257-29.8912573s-29.891257 13.3827717-29.891257 29.8912573c0 16.5084852 13.382771 29.8912572 29.891257 29.8912572zm0 22.869c-29.138686 0-52.7602574-23.621572-52.7602574-52.7602572 0-29.1386856 23.6215714-52.7602574 52.7602574-52.7602574s52.760257 23.6215718 52.760257 52.7602574c0 29.1386852-23.621571 52.7602572-52.760257 52.7602572zm-135.24892428-142.14283029-.76191488-1.21931869h1.43734694c-.36711574.32309048-.59869779.75741619-.67543206 1.21931869zm43.82236058 72.09205639-44.47205981-71.17017289c-.60845331-.97372884-.31233898-2.25634089.66138985-2.86479419.3303819-.20644553.71212298-.31590802 1.10170218-.31590802h22.06360708c.716888 0 1.3831993.3693424 1.763092.97729787l30.2822729 48.46176683 30.2822728-48.46176683c.3798928-.60795547 1.0462041-.97729787 1.7630921-.97729787h22.0636066c1.1482 0 2.079.93080002 2.079 2.07900004 0 .3895792-.109462.77132027-.315908 1.10170217l-44.4030676 71.05976309v65.8841347c0 1.1482-.9308001 2.079-2.0790001 2.079h-18.711c-1.1482 0-2.079-.9308-2.079-2.079zm259.2605427-30.5429018c0-1.09079.88426-1.97505 1.97505-1.97505h18.031271c1.062624 0 1.934781.8407608 1.973723 1.9026711l.085602 2.3410347.0202 3.4559229c6.878904-6.2064623 14.493561-9.7381643 22.856154-10.585109.886423-.044159 1.775996-.0663086 2.668179-.0663086 29.138686 0 52.760258 23.6215718 52.760258 52.7602574 0 29.0751782-23.522844 52.6681082-52.602475 52.7598762-9.517349-.199746-17.919903-3.603329-25.187206-10.1991l.279679 47.847761.000034.011545c0 1.09079-.88426 1.97505-1.97505 1.97505h-18.910369c-1.09079 0-1.97505-.88426-1.97505-1.97505v-67.772125l-.001063-45.2912591.001063-.0046556zm47.610179 77.6930467c16.491018 0 29.859629-13.368611 29.859629-29.8596282 0-16.4910175-13.368611-29.8596285-29.859629-29.8596285-16.491017 0-29.859628 13.368611-29.859628 29.8596285 0 16.4910172 13.368611 29.8596282 29.859628 29.8596282zm-108.613924 2.47336c10.899858-1.218558 21.577909-7.513175 22.610533-13.336122v-66.8714736c0-1.09079.88426-1.97505 1.97505-1.97505h18.9189c1.09079 0 1.97505.88426 1.97505 1.97505v96.0498006c0 1.09079-.88426 1.97505-1.97505 1.97505h-18.9189c-1.09079 0-1.97505-.88426-1.97505-1.97505v-3.371384c-4.599373 3.878809-19.513687 7.956452-29.985568 7.956452-10.748214 0-18.060706-1.37026-24.125962-5.581826-7.921947-5.500807-12.173976-15.446268-12.173976-31.019842v-64.0332006c0-1.09079.88426-1.97505 1.97505-1.97505h18.9189c1.09079 0 1.97505.88426 1.97505 1.97505v64.5529506h-.010928c.233989 11.843144 8.501887 17.031411 20.816901 15.654645zm171.771801 15.842205v-96.0280014c0-1.09079.88426-1.97505 1.97505-1.97505h18.9189c1.09079 0 1.97505.88426 1.97505 1.97505v96.0280014c0 1.09079-.88426 1.97505-1.97505 1.97505h-18.9189c-1.09079 0-1.97505-.88426-1.97505-1.97505zm11.477249-113.1777739c-3.43324 0-6.404404-1.2374057-8.887765-3.699904-2.484439-2.4635679-3.732934-5.4318005-3.732934-8.8780462 0-3.4450271 1.233299-6.41246003 3.68815-8.87601608 2.455607-2.46431496 5.442143-3.70193421 8.932549-3.70193421 3.376875 0 6.319332 1.23782797 8.802267 3.69990398 2.484439 2.46356794 3.732934 5.43180051 3.732934 8.87804631 0 3.4462457-1.248495 6.4144783-3.732934 8.8780462-2.482935 2.462076-5.425392 3.699904-8.802267 3.699904zm180.837046 112.8620889v-25.185461l-.001062-.004655.001062-45.2912597v-67.77212429c0-1.09079.88426-1.97505001 1.97505-1.97505001h18.910369c1.09079 0 1.97505.88426001 1.97505 1.97505001l-.000034.01154434-.279679 47.84776145c7.267303-6.5957715 15.669857-9.9993541 25.187207-10.1991004 29.07963.0917686 52.602474 23.6846984 52.602474 52.7598764 0 29.1386852-23.621572 52.7602572-52.760257 52.7602572-.892184 0-1.781757-.022149-2.66818-.066308-8.362593-.846945-15.977249-4.378647-22.856153-10.585109l-.020201 3.455922-.085602 2.341035c-.038941 1.061911-.911099 1.902671-1.973723 1.902671h-18.031271c-1.09079 0-1.97505-.88426-1.97505-1.97505zm47.260007-77.6930467c-16.491017 0-29.859628 13.3686111-29.859628 29.8596285 0 16.4910172 13.368611 29.8596282 29.859628 29.8596282 16.491018 0 29.859629-13.368611 29.859629-29.8596282 0-16.4910174-13.368611-29.8596285-29.859629-29.8596285zm-110.926095 59.7247957c16.508486 0 29.891257-13.382772 29.891257-29.8912572 0-16.5084856-13.382771-29.8912573-29.891257-29.8912573s-29.891257 13.3827717-29.891257 29.8912573c0 16.5084852 13.382771 29.8912572 29.891257 29.8912572zm.500241 22.869c-29.138686 0-52.760258-23.621572-52.760258-52.7602572 0-29.1386856 23.621572-52.7602574 52.760258-52.7602574 29.138685 0 52.760257 23.6215718 52.760257 52.7602574 0 29.1386852-23.621572 52.7602572-52.760257 52.7602572zm-63.65752-27.818623c-.08449 40.179678-4.364254 67.062791-48.425418 68.202377-.239127.006185-.525121.011801-.857983.016848-1.148068.01741-2.092874-.899171-2.110283-2.04724-.000159-.01051-.000239-.021021-.000239-.031532l.000147-15.500028c.000006-1.148163.93078-2.078928 2.078943-2.078922.014805 0 .029609.000159.044411.000475.025798.000551.050973.001106.075527.001664 13.531911.307572 26.327209 1.977736 26.327209-49.838651v-71.4069732c0-1.1482001.9308-2.0790001 2.079-2.0790001h18.711001c1.1482 0 2.079.9308 2.079 2.0790001v72.6819822zm-11.493103-89.9139056c-3.437102 0-6.400076-1.2339946-8.889011-3.7020208-2.488936-2.4680262-3.733385-5.4266398-3.733385-8.8759294 0-3.4492897 1.229634-6.40790323 3.68894-8.87592945 2.459305-2.46802622 5.437094-3.70202082 8.933456-3.70202082 3.377841 0 6.311185 1.2339946 8.80012 3.70202082 2.488936 2.46802622 3.733385 5.42663975 3.733385 8.87592945 0 3.4492896-1.244449 6.4079032-3.733385 8.8759294-2.488935 2.4680262-5.422279 3.7020208-8.80012 3.7020208z" fill="#007afb" fill-rule="nonzero" transform="translate(-.350001 290.014996)"/></g></svg>