<svg height="119" viewBox="0 0 476 119" width="476" xmlns="http://www.w3.org/2000/svg"><g fill="#fff" fill-rule="evenodd"><g transform="translate(0 -.228346)"><path d="m13.0957179 49.0498747c-1.9126025 1.8838794-2.9924141 4.47681-2.9924141 7.185626v42.3561295c0 5.5228478 4.399289 9.9999998 9.826087 9.9999998h72.7130435c5.4267979 0 9.8260867-4.477152 9.8260867-9.9999998v-42.3561295c0-2.708816-1.079811-5.3017466-2.9924138-7.185626l-36.3565217-35.8105263c-3.8097123-3.75249874-9.8576336-3.75249874-13.6673459 0zm-6.83367298-7.1856259 36.35652178-35.81052636c7.6194245-7.50499746 19.7152672-7.50499746 27.3346917 0l36.3565216 35.81052636c3.825205 3.7677587 5.984828 8.9536199 5.984828 14.3712519v42.3561295c0 11.0456948-8.798578 19.9999998-19.6521737 19.9999998h-72.7130435c-10.85359596 0-19.65217392-8.954305-19.65217392-19.9999998v-42.3561295c0-5.417632 2.15962309-10.6034932 5.98482804-14.3712519z" fill-rule="nonzero"/><path d="m92.5033723 88.5016117v.0015036l-.0164569.0133366c-.0212335.0187224-.0432635.0365339-.0660315.0533747-6.5113648 5.2525304-14.4425169 8.4749374-23.0355824 8.827557h-3.1539848c-8.5970681-.3527839-16.531606-3.5780292-23.0446804-8.8348982l-.0000482-.0028126c-.2390282-.1824111-.3936817-.4731056-.3936817-.8005607 0-.3149113.1430318-.5958244.3665877-.7791252l-.0000459-.0026753 5.5614954-5.2068856c.1801761-.2119032.4463703-.3459687.7433325-.3459687.2515074 0 .4809449.0961648.654748.2543357h.005207c5.1028487 3.6403486 11.1734167 5.750894 17.684078 5.750894 6.5103605 0 12.5806684-2.1103504 17.6833707-5.7503894.1742876-.158171.4037251-.2543358.6552324-.2543358.2810269 0 .5344991.1200633.7135925.3125368l5.6138452 5.2558975c.2152028.1834384.3520545.458942.3520545.7669748 0 .2939485-.1246232.5582745-.3230321.7412408z" fill-rule="evenodd"/></g><path d="m65.8722897 58.8072616c7.9405894 0 14.3777089-6.4371196 14.3777089-14.3777089 0-7.9405894-6.4371195-14.3777089-14.3777089-14.3777089-7.9405893 0-14.3777088 6.4371195-14.3777088 14.3777089 0 7.9405893 6.4371195 14.3777089 14.3777088 14.3777089zm0 10.9999998c-14.0157215 0-25.3777087-11.3619872-25.3777087-25.3777087s11.3619872-25.3777087 25.3777087-25.3777087 25.3777088 11.3619872 25.3777088 25.3777087-11.3619873 25.3777087-25.3777088 25.3777087zm-65.05479635-68.37076854-.36648141-.58649287h.69136456c-.17658285.15540668-.28797392.36431755-.32488315.58649287zm21.07857615 34.67631314-21.39108178-34.23288674c-.29266633-.46836403-.1502352-1.08530103.31812883-1.37796736.15891385-.0993004.34253149-.15195191.52991927-.15195191h10.61260538c.3448235 0 .6653195.17765387.8480481.47008074l14.5657876 23.31013277 14.5657875-23.31013277c.1827286-.29242687.5032246-.47008074.8480481-.47008074h10.6126054c.5522848 0 1 .44771525 1 1 0 .18738778-.0526515.37100542-.1519519.52991927l-21.3578967 34.17977954v31.6903c0 .5522848-.4477153 1-1 1h-8.9999998c-.5522848 0-1-.4477152-1-1zm124.7044435-14.6911502c0-.5246705.425329-.95.95-.95h8.67305c.511122 0 .93063.4044064.949361.9151857l.041175 1.1260388.009716 1.6623006c3.308756-2.9853113 6.97141-4.6840616 10.993821-5.0914425.42637-.0212404.854255-.0318944 1.283396-.0318944 14.015721 0 25.377708 11.3619872 25.377708 25.3777087 0 13.9851743-11.314499 25.3333847-25.301815 25.3775254-4.577849-.096078-8.619482-1.7332028-12.115058-4.905772l.134526 23.0147958.000016.0055528c0 .5246705-.425329.95-.95.95h-9.095896c-.524671 0-.95-.4253295-.95-.95v-32.5984238l-.000511-21.7851171.000511-.0022394zm22.900519 37.3703923c7.932187 0 14.362495-6.4303082 14.362495-14.3624954s-6.430308-14.3624954-14.362495-14.3624954c-7.932188 0-14.362496 6.4303082-14.362496 14.3624954s6.430308 14.3624954 14.362496 14.3624954zm-52.243349 1.1896871c5.242836-.5861269 10.378984-3.6138404 10.875677-6.414681v-32.1652103c0-.5246705.425329-.9499999.95-.9499999h9.1c.52467 0 .95.4253294.95.9499999v46.1999993c0 .5246705-.42533.9499999-.95.9499999h-9.1c-.524671 0-.95-.4253294-.95-.9499999v-1.6216371c-2.212301 1.8657089-9.386093 3.8270569-14.423072 3.8270569-5.169896 0-8.687209-.6590957-11.6046-2.6848608-3.8104601-2.6458908-5.855688-7.4296621-5.855688-14.9205588v-30.7999995c0-.5246705.4253295-.9499999.95-.9499999h9.1c.52467 0 .95.4253294.95.9499999v31.0499995h-.005257c.11255 5.6965582 4.089412 8.192117 10.01294 7.5298918zm82.622317 7.620108v-46.1895138c0-.5246705.425329-.95.95-.95h9.1c.52467 0 .95.4253295.95.95v46.1895138c0 .5246705-.42533.9499999-.95.9499999h-9.1c-.524671 0-.95-.4253294-.95-.9499999zm5.520562-54.4385625c-1.65139 0-3.080521-.5951927-4.275019-1.7796556-1.195016-1.1849773-1.795543-2.61269855-1.795543-4.2703444 0-1.65705966.593218-3.08439628 1.774002-4.2693679 1.181148-1.18533666 2.617673-1.7806321 4.29656-1.7806321 1.624279 0 3.039602.59539584 4.233895 1.77965556 1.195016 1.18497734 1.795543 2.61269858 1.795543 4.27034444 0 1.65764585-.600527 3.0853671-1.795543 4.2703444-1.194293 1.1842598-2.609616 1.7796556-4.233895 1.7796556zm86.982705 54.2867182v-12.1142187l-.000511-.0022393.000511-21.7851171v-32.59842381c0-.52467051.425329-.94999999.95-.94999999h9.095896c.524671 0 .95.42532948.95.94999999l-.000016.00555283-.134526 23.01479578c3.495576-3.1725692 7.537209-4.809694 12.115058-4.905772 13.987316.0441407 25.301815 11.3923511 25.301815 25.3775254 0 14.0157215-11.361987 25.3777087-25.377708 25.3777087-.429141 0-.857026-.010654-1.283396-.0318945-4.022411-.4073808-7.685065-2.1061311-10.993821-5.0914424l-.009716 1.6623005-.041175 1.1260389c-.018731.5107793-.438239.9151856-.949361.9151856h-8.67305c-.524671 0-.95-.4253294-.95-.9499999zm22.732085-37.3703923c-7.932187 0-14.362495 6.4303082-14.362495 14.3624954s6.430308 14.3624954 14.362495 14.3624954c7.932188 0 14.362496-6.4303082 14.362496-14.3624954s-6.430308-14.3624954-14.362496-14.3624954zm-53.355504 28.727655c7.94059 0 14.377709-6.4371196 14.377709-14.3777089 0-7.9405894-6.437119-14.3777089-14.377709-14.3777089-7.940589 0-14.377709 6.4371195-14.377709 14.3777089 0 7.9405893 6.43712 14.3777089 14.377709 14.3777089zm.240616 10.9999998c-14.015721 0-25.377708-11.3619872-25.377708-25.3777087s11.361987-25.3777087 25.377708-25.3777087c14.015722 0 25.377709 11.3619872 25.377709 25.3777087s-11.361987 25.3777087-25.377709 25.3777087zm-30.619297-13.3807711c-.04064 19.3264445-2.099208 32.2572343-23.292649 32.8053757-.11502.0029749-.252583.0056762-.41269.0081039-.552221.0083742-1.006673-.4325017-1.015047-.9847233-.000077-.0050553-.000115-.010111-.000115-.0151668l.000071-7.4555211c.000003-.5522667.447706-.999965.999972-.9999622.007121 0 .014242.0000761.021362.0002283.012409.0002652.024518.000532.036329.0008005 6.508855.1479423 12.6634.9512917 12.6634-23.9724148v-34.3467877c0-.5522848.447715-1 1-1h9c.552284 0 1 .4477152 1 1v34.9600675zm-5.528188-43.2486308c-1.653247 0-3.078439-.593552-4.275618-1.7806738-1.197179-1.1871217-1.79576-2.61021625-1.79576-4.2693262 0-1.65910996.591455-3.08220447 1.774382-4.26932625 1.182927-1.18712177 2.615244-1.78067375 4.296996-1.78067375 1.624743 0 3.035683.59355198 4.232862 1.78067375 1.197179 1.18712178 1.79576 2.61021629 1.79576 4.26932625 0 1.65910995-.598581 3.0822045-1.79576 4.2693262-1.197179 1.1871218-2.608119 1.7806738-4.232862 1.7806738z" fill-rule="nonzero" transform="translate(135 22)"/></g></svg>