<svg height="90" viewBox="0 0 342 90" width="342" xmlns="http://www.w3.org/2000/svg"><path d="m65.8722897 58.8072616c7.9405894 0 14.3777089-6.4371196 14.3777089-14.3777089 0-7.9405894-6.4371195-14.3777089-14.3777089-14.3777089-7.9405893 0-14.3777088 6.4371195-14.3777088 14.3777089 0 7.9405893 6.4371195 14.3777089 14.3777088 14.3777089zm0 10.9999998c-14.0157215 0-25.3777087-11.3619872-25.3777087-25.3777087s11.3619872-25.3777087 25.3777087-25.3777087 25.3777088 11.3619872 25.3777088 25.3777087-11.3619873 25.3777087-25.3777088 25.3777087zm-65.05479635-68.37076854-.36648141-.58649287h.69136456c-.17658285.15540668-.28797392.36431755-.32488315.58649287zm21.07857615 34.67631314-21.39108178-34.23288674c-.29266633-.46836403-.1502352-1.08530103.31812883-1.37796736.15891385-.0993004.34253149-.15195191.52991927-.15195191h10.61260538c.3448235 0 .6653195.17765387.8480481.47008074l14.5657876 23.31013277 14.5657875-23.31013277c.1827286-.29242687.5032246-.47008074.8480481-.47008074h10.6126054c.5522848 0 1 .44771525 1 1 0 .18738778-.0526515.37100542-.1519519.52991927l-21.3578967 34.17977954v31.6903c0 .5522848-.4477153 1-1 1h-8.9999998c-.5522848 0-1-.4477152-1-1zm124.7044435-14.6911502c0-.5246705.425329-.95.95-.95h8.67305c.511122 0 .93063.4044064.949361.9151857l.041175 1.1260388.009716 1.6623006c3.308756-2.9853113 6.97141-4.6840616 10.993821-5.0914425.42637-.0212404.854255-.0318944 1.283396-.0318944 14.015721 0 25.377708 11.3619872 25.377708 25.3777087 0 13.9851743-11.314499 25.3333847-25.301815 25.3775254-4.577849-.096078-8.619482-1.7332028-12.115058-4.905772l.134526 23.0147958.000016.0055528c0 .5246705-.425329.95-.95.95h-9.095896c-.524671 0-.95-.4253295-.95-.95v-32.5984238l-.000511-21.7851171.000511-.0022394zm22.900519 37.3703923c7.932187 0 14.362495-6.4303082 14.362495-14.3624954s-6.430308-14.3624954-14.362495-14.3624954c-7.932188 0-14.362496 6.4303082-14.362496 14.3624954s6.430308 14.3624954 14.362496 14.3624954zm-52.243349 1.1896871c5.242836-.5861269 10.378984-3.6138404 10.875677-6.414681v-32.1652103c0-.5246705.425329-.9499999.95-.9499999h9.1c.52467 0 .95.4253294.95.9499999v46.1999993c0 .5246705-.42533.9499999-.95.9499999h-9.1c-.524671 0-.95-.4253294-.95-.9499999v-1.6216371c-2.212301 1.8657089-9.386093 3.8270569-14.423072 3.8270569-5.169896 0-8.687209-.6590957-11.6046-2.6848608-3.8104601-2.6458908-5.855688-7.4296621-5.855688-14.9205588v-30.7999995c0-.5246705.4253295-.9499999.95-.9499999h9.1c.52467 0 .95.4253294.95.9499999v31.0499995h-.005257c.11255 5.6965582 4.089412 8.192117 10.01294 7.5298918zm82.622317 7.620108v-46.1895138c0-.5246705.425329-.95.95-.95h9.1c.52467 0 .95.4253295.95.95v46.1895138c0 .5246705-.42533.9499999-.95.9499999h-9.1c-.524671 0-.95-.4253294-.95-.9499999zm5.382877-53.4385627c-1.787868 0-3.335109-.6443822-4.628326-1.9267345-1.293778-1.2829093-1.943935-2.82862406-1.943935-4.62326541 0-1.79400671.642244-3.33930501 1.920614-4.62220814 1.278764-1.28329835 2.83401-1.92779175 4.651647-1.92779175 1.758517 0 3.290809.64460209 4.583804 1.9267345 1.293778 1.28290933 1.943935 2.82862404 1.943935 4.62326539s-.650157 3.34035611-1.943935 4.62326541c-1.292995 1.2821324-2.825287 1.9267345-4.583804 1.9267345zm87.12039 53.2867184v-12.1142187l-.000511-.0022393.000511-21.7851171v-32.59842381c0-.52467051.425329-.94999999.95-.94999999h9.095896c.524671 0 .95.42532948.95.94999999l-.000016.00555283-.134526 23.01479578c3.495576-3.1725692 7.537209-4.809694 12.115058-4.905772 13.987316.0441407 25.301815 11.3923511 25.301815 25.3775254 0 14.0157215-11.361987 25.3777087-25.377708 25.3777087-.429141 0-.857026-.010654-1.283396-.0318945-4.022411-.4073808-7.685065-2.1061311-10.993821-5.0914424l-.009716 1.6623005-.041175 1.1260389c-.018731.5107793-.438239.9151856-.949361.9151856h-8.67305c-.524671 0-.95-.4253294-.95-.9499999zm22.732085-37.3703923c-7.932187 0-14.362495 6.4303082-14.362495 14.3624954s6.430308 14.3624954 14.362495 14.3624954c7.932188 0 14.362496-6.4303082 14.362496-14.3624954s-6.430308-14.3624954-14.362496-14.3624954zm-53.355504 28.727655c7.94059 0 14.377709-6.4371196 14.377709-14.3777089 0-7.9405894-6.437119-14.3777089-14.377709-14.3777089-7.940589 0-14.377709 6.4371195-14.377709 14.3777089 0 7.9405893 6.43712 14.3777089 14.377709 14.3777089zm.240616 10.9999998c-14.015721 0-25.377708-11.3619872-25.377708-25.3777087s11.361987-25.3777087 25.377708-25.3777087c14.015722 0 25.377709 11.3619872 25.377709 25.3777087s-11.361987 25.3777087-25.377709 25.3777087zm-30.619297-13.3807711c-.04064 19.3264445-2.099208 32.2572343-23.292649 32.8053757-.11502.0029749-.252583.0056762-.41269.0081039-.552221.0083742-1.006673-.4325017-1.015047-.9847233-.000077-.0050553-.000115-.010111-.000115-.0151668l.000071-7.4555211c.000003-.5522667.447706-.999965.999972-.9999622.007121 0 .014242.0000761.021362.0002283.012409.0002652.024518.000532.036329.0008005 6.508855.1479423 12.6634.9512917 12.6634-23.9724148v-34.3467877c0-.5522848.447715-1 1-1h9c.552284 0 1 .4477152 1 1v34.9600675zm-5.61649-42.748631c-1.721563 0-3.205647-.6180789-4.452297-1.8542553-1.246649-1.2361764-1.869964-2.71807643-1.869964-4.44574461 0-1.72766819.615895-3.20956823 1.847703-4.44574461 1.231808-1.23617637 2.723313-1.85425528 4.474558-1.85425528 1.691881 0 3.161125.61807891 4.407774 1.85425528 1.246649 1.23617638 1.869965 2.71807642 1.869965 4.44574461 0 1.72766818-.623316 3.20956821-1.869965 4.44574461s-2.715893 1.8542553-4.407774 1.8542553z" fill="#007afb" transform="translate(.5 .449999)"/></svg>