<?xml version="1.0" encoding="UTF-8"?>
<svg width="300px" height="287px" viewBox="0 0 300 287" version="1.1" xmlns="http://www.w3.org/2000/svg" xmlns:xlink="http://www.w3.org/1999/xlink">
    <!-- Generator: Sketch 55.1 (78136) - https://sketchapp.com -->
    <title>Group 2</title>
    <desc>Created with Sketch.</desc>
    <defs>
        <linearGradient x1="0%" y1="50.110745%" x2="99.0961963%" y2="49.9072876%" id="linearGradient-1">
            <stop stop-color="#C0E3F5" offset="0%"></stop>
            <stop stop-color="#8CC2E7" offset="100%"></stop>
        </linearGradient>
        <path d="M-0.134577626,45.3929765 L143.819106,45.7588677 C145.51363,45.7631747 146.886245,47.1357801 146.890565,48.830304 L147.077725,122.249019 C147.08206,123.949661 145.706931,125.331819 144.006289,125.336155 C144.001063,125.336168 143.995838,125.336168 143.990612,125.336155 L0.0369286956,124.970263 C-1.65759522,124.965956 -3.03021088,123.593351 -3.03453058,121.898827 L-3.22169032,48.4801123 C-3.22602561,46.7794696 -1.85089677,45.3973119 -0.150254082,45.3929766 C-0.145028605,45.3929633 -0.139803103,45.3929632 -0.134577626,45.3929765 Z" id="path-2"></path>
        <filter x="-88.8%" y="-167.0%" width="277.6%" height="433.9%" filterUnits="objectBoundingBox" id="filter-3">
            <feOffset dx="0" dy="0" in="SourceAlpha" result="shadowOffsetOuter1"></feOffset>
            <feGaussianBlur stdDeviation="44.5" in="shadowOffsetOuter1" result="shadowBlurOuter1"></feGaussianBlur>
            <feColorMatrix values="0 0 0 0 0   0 0 0 0 0.470588235   0 0 0 0 0.980392157  0 0 0 0.05 0" type="matrix" in="shadowBlurOuter1"></feColorMatrix>
        </filter>
        <linearGradient x1="0%" y1="43.6002503%" x2="99.6911951%" y2="47.4844118%" id="linearGradient-4">
            <stop stop-color="#E1F6FF" offset="0%"></stop>
            <stop stop-color="#8CD0FF" offset="100%"></stop>
        </linearGradient>
    </defs>
    <g id="Dashboard" stroke="none" stroke-width="1" fill="none" fill-rule="evenodd">
        <g id="Artboard" transform="translate(-708.000000, 0.000000)">
            <g id="CESU-Landing-illustration" transform="translate(309.000000, 29.000000)">
                <g id="wallet" transform="translate(477.000000, 9.000000)">
                    <g id="Group-2">
                        <path d="M143.700479,104.377836 L143.700479,101.358498 C143.700479,96.7300937 139.918413,92.9787425 135.255134,92.9787425 L15.1171536,92.9787425 C10.4538744,92.9787425 6.67180797,96.7300937 6.67180797,101.358498 L6.67180797,106.925554 L143.700479,104.377836 Z" id="back" fill="url(#linearGradient-1)" fill-rule="nonzero"></path>
                        <g id="CRCESU.ticket" transform="translate(-0.000000, -0.000000)">
                            <g id="Rectangle" transform="translate(71.928017, 85.364566) rotate(60.000000) translate(-71.928017, -85.364566) ">
                                <use fill="black" fill-opacity="1" filter="url(#filter-3)" xlink:href="#path-2"></use>
                                <use fill="#FFFFFF" fill-rule="evenodd" xlink:href="#path-2"></use>
                            </g>
                            <path d="M94.9710038,42.2802021 C94.9710038,43.7374968 93.7965574,44.9188675 92.3478044,44.9188675 L44.0809341,44.9188675 C42.632181,44.9188675 41.4577346,43.7374968 41.4577346,42.2802021 C41.4577346,40.8229075 42.632181,39.6415367 44.0809341,39.6415367 L92.3478044,39.6415367 C93.7965574,39.6415367 94.9710038,40.8229075 94.9710038,42.2802021 Z M75.0346879,52.8348637 C75.0346879,54.2921584 73.8602414,55.4735291 72.4114884,55.4735291 L44.0809341,55.4735291 C42.632181,55.4735291 41.4577346,54.2921584 41.4577346,52.8348637 C41.4577346,51.3775691 42.632181,50.1961983 44.0809341,50.1961983 L72.4114884,50.1961983 C73.8602414,50.1961983 75.0346879,51.3775691 75.0346879,52.8348637 Z" id="Shape" fill="#8A939E" transform="translate(68.214369, 47.557533) rotate(60.000000) translate(-68.214369, -47.557533) "></path>
                            <path d="M89.4263751,156.009802 L107.264131,156.009802 L107.264131,162.342599 L89.4263751,162.342599 L89.4263751,156.009802 Z M89.4263751,138.066878 L107.264131,138.066878 L107.264131,144.399674 L89.4263751,144.399674 L89.4263751,138.066878 Z M89.4263751,112.73569 L107.264131,112.73569 L107.264131,118.01302 L89.4263751,118.01302 L89.4263751,112.73569 Z M89.4263751,150.732471 L107.264131,150.732471 L107.264131,152.843404 L89.4263751,152.843404 L89.4263751,150.732471 Z M89.4263751,146.510607 L107.264131,146.510607 L107.264131,148.621539 L89.4263751,148.621539 L89.4263751,146.510607 Z M89.4263751,120.123953 L107.264131,120.123953 L107.264131,122.234885 L89.4263751,122.234885 L89.4263751,120.123953 Z M89.4263751,106.402893 L107.264131,106.402893 L107.264131,108.513825 L89.4263751,108.513825 L89.4263751,106.402893 Z M89.4263751,101.125562 L107.264131,101.125562 L107.264131,104.29196 L89.4263751,104.29196 L89.4263751,101.125562 Z M89.4263751,131.734081 L107.264131,131.734081 L107.264131,133.845013 L89.4263751,133.845013 L89.4263751,131.734081 Z M89.4263751,125.401284 L107.264131,125.401284 L107.264131,128.567682 L89.4263751,128.567682 L89.4263751,125.401284 Z" id="Shape" fill="#8A939E" transform="translate(98.345253, 131.734081) rotate(60.000000) translate(-98.345253, -131.734081) "></path>
                            <ellipse id="Oval" fill="#8A939E" transform="translate(66.646868, 105.519801) rotate(60.000000) translate(-66.646868, -105.519801) " cx="66.6468677" cy="105.519801" rx="12.5334112" ry="12.4966267"></ellipse>
                        </g>
                        <g id="front" transform="translate(6.671808, 100.210422)" fill-rule="nonzero">
                            <path d="M140.357655,8.55498101 L140.357655,93.3916711 C140.357655,97.4432432 137.088062,100.726971 133.05695,100.726971 L7.54549908,100.726971 C3.51573774,100.725613 0.249687268,97.4418853 0.249687268,93.3916711 L0.249687268,-9.09494702e-13 C3.84621422,1.3401738 3.84621422,1.3401738 7.54549908,1.22951725 L133.05695,1.22951725 C137.084245,1.22951157 140.350907,4.50725105 140.357655,8.55498101 Z" id="Path" fill="url(#linearGradient-4)"></path>
                            <path d="M140.357655,39.2576913 L140.357655,66.1182169 L114.163895,66.1182169 C106.776485,66.0193164 100.840023,60.0365369 100.840023,52.6903882 C100.840023,45.3442396 106.776485,39.36146 114.163895,39.2625595 L140.357655,39.2576913 Z" id="Path" fill="#D8EFFF"></path>
                            <ellipse id="Oval" fill="#000000" opacity="0.1" cx="115.210071" cy="53.2045027" rx="5.13215998" ry="5.16548569"></ellipse>
                            <ellipse id="Oval" fill="#93D3FF" cx="115.723287" cy="53.2045027" rx="5.13215998" ry="5.16548569"></ellipse>
                        </g>
                        <ellipse id="Oval" fill="#FFFFFF" cx="136.144798" cy="179.596283" rx="25.4231996" ry="25.5882853"></ellipse>
                        <path d="M137.302383,190.213489 C138.662412,190.213489 139.881288,189.88311 140.959047,189.222341 C142.036805,188.561572 142.922094,187.62817 143.614939,186.422107 L147.50255,188.94328 C146.347808,190.649731 144.888365,191.993702 143.124176,192.975233 C141.359988,193.956763 139.425824,194.447521 137.321629,194.447521 C134.280809,194.447521 131.685887,193.594308 129.536784,191.887856 C127.387682,190.181405 125.97956,187.711578 125.312376,184.478301 L122.387045,184.478301 L122.387045,181.918637 L124.965955,181.918637 C124.927464,181.405418 124.908218,180.866547 124.908218,180.302007 C124.908218,179.942754 124.921048,179.442373 124.946709,178.80085 L122.387045,178.80085 L122.387045,176.22194 L125.29313,176.22194 C125.947484,172.975833 127.352398,170.499591 129.507916,168.793139 C131.663434,167.086688 134.267979,166.233475 137.321629,166.233475 C139.425824,166.233475 141.359988,166.724233 143.124176,167.705763 C144.888365,168.687293 146.347808,170.024849 147.50255,171.71847 L143.614939,174.239643 C142.922094,173.020749 142.033598,172.087347 140.949424,171.439409 C139.86525,170.791471 138.649582,170.467506 137.302383,170.467506 C135.480457,170.467506 133.924787,170.929396 132.635326,171.853189 C131.345864,172.776983 130.438122,174.233218 129.912074,176.22194 L138.611084,176.22194 L138.611084,178.80085 L129.507916,178.80085 C129.469425,179.288408 129.450179,179.788788 129.450179,180.302007 C129.450179,180.866547 129.469425,181.405418 129.507916,181.918637 L138.611084,181.918637 L138.611084,184.478301 L129.931319,184.478301 C130.470199,186.454193 131.381148,187.904013 132.664194,188.827806 C133.94724,189.7516 135.493288,190.213489 137.302383,190.213489 Z" id="€" fill="#93D4FF" fill-rule="nonzero"></path>
                    </g>
                </g>
            </g>
        </g>
    </g>
</svg>